<?xml version="1.0" standalone="no"?>
<!DOCTYPE svg PUBLIC "-//W3C//DTD SVG 1.1//EN" "http://www.w3.org/Graphics/SVG/1.1/DTD/svg11.dtd" >
<svg>
<metadata>
Created by FontForge 20090622 at Fri Jul 21 05:19:17 2017
 By deploy user
Copyright (c) 1985, 1987, 1989, 1990, 1997, 1998, 1999 Adobe Systems Incorporated.  All Rights Reserved.Helvetica is a trademark of Linotype-Hell AG and/or its subsidiaries.
</metadata>
<defs>
<font id="HelveticaLT-Narrow" horiz-adv-x="456" >
  <font-face 
    font-family="Helvetica LT Narrow"
    font-weight="400"
    font-stretch="normal"
    units-per-em="1000"
    panose-1="2 0 0 6 4 0 0 2 0 4"
    ascent="800"
    descent="-200"
    x-height="524"
    cap-height="718"
    bbox="-136 -225 821 931"
    underline-thickness="45"
    underline-position="-68"
    unicode-range="U+0020-U+FB02"
  />
<missing-glyph horiz-adv-x="500" 
 />
    <glyph glyph-name=".notdef" horiz-adv-x="500" 
 />
    <glyph glyph-name="glyph1" unicode=" " horiz-adv-x="228" 
 />
    <glyph glyph-name="glyph1" unicode="&#xa0;" horiz-adv-x="228" 
 />
    <glyph glyph-name="quotedbl" unicode="&#x22;" horiz-adv-x="291" 
d="M174 718h60v-255h-60v255zM57 718h60v-255h-60v255z" />
    <glyph glyph-name="numbersign" unicode="#" 
d="M186 415l-17 -142h103l15 142h-101zM294 0h-54l24 210h-103l-23 -210h-55l25 210h-85l8 63h84l15 142h-84l7 63h85l23 210h55l-23 -210h101l24 210h55l-23 -210h84l-7 -63h-85l-17 -142h85l-7 -63h-85z" />
    <glyph glyph-name="dollar" unicode="$" 
d="M343 521q-2 20 -6.5 38.5t-15 34t-29 27.5t-46.5 18v-240q42 -15 76 -29t57 -35.5t35.5 -54t12.5 -84.5q0 -64 -18.5 -105.5t-46.5 -66t-59.5 -34t-56.5 -9.5v-96h-39v96q-38 3 -71 15t-57.5 38.5t-38.5 70t-14 108.5h73q2 -40 7.5 -67.5t17.5 -46t32 -29t51 -16.5v265
q-31 9 -61.5 21.5t-54.5 34t-38.5 55.5t-14.5 86q0 40 13 76t35.5 62t53.5 41.5t67 15.5v64h39v-64q19 -2 47 -9t53.5 -27.5t44.5 -57t21 -96.5h-69zM246 54q27 0 47.5 10.5t34 28t20 40.5t6.5 47q0 42 -18.5 71.5t-44.5 39.5l-45 17v-254zM207 639q-24 0 -42 -9.5t-30 -26
t-18.5 -37.5t-6.5 -44q0 -27 8.5 -46.5t22 -33t31 -21.5t35.5 -12v230z" />
    <glyph glyph-name="percent" unicode="%" horiz-adv-x="729" 
d="M224 -19h-45l325 722h45zM475 164q0 -23 7 -42t18 -32t26 -20t31 -7q18 0 33 8t26 22t17 32t6 39q0 42 -23.5 70.5t-57.5 28.5q-18 0 -33 -8t-26 -21.5t-17.5 -31.5t-6.5 -38zM418 164q0 36 11 66.5t30 53.5t44.5 36t54.5 13q28 0 53.5 -13t44.5 -36t30 -54t11 -66
t-11 -66.5t-29.5 -54.5t-44 -36.5t-54.5 -13.5t-54.5 13t-44.5 36.5t-30 54.5t-11 67zM90 526q0 -47 24.5 -74t56.5 -27q18 0 33.5 8t26.5 22t17.5 32t6.5 39q0 42 -24.5 70.5t-58.5 28.5q-18 0 -33 -8t-26 -21.5t-17 -31.5t-6 -38zM32 526q0 36 11 66.5t30 53.5t44.5 36
t54.5 13q28 0 53.5 -13t45 -36t30.5 -54t11 -66t-11 -66.5t-30 -54.5t-44.5 -36.5t-54.5 -13.5t-54.5 13t-44.5 36.5t-30 54.5t-11 67z" />
    <glyph glyph-name="ampersand" unicode="&#x26;" horiz-adv-x="547" 
d="M529 0h-93l-56 82q-15 -21 -31.5 -39t-37 -30.5t-45.5 -20t-57 -7.5q-55 0 -89 21.5t-52.5 51.5t-25 62t-6.5 53q0 37 5.5 66t20 55.5t40.5 51.5t67 53q-16 24 -27.5 43t-19 37t-11.5 37t-4 42q0 31 9 60t26.5 51t43.5 35.5t60 13.5q35 0 60 -13t41 -34t23.5 -47.5
t7.5 -53.5q0 -38 -10.5 -67t-26 -51.5t-34 -39.5t-34.5 -30l107 -156q5 16 8.5 28.5t6 24.5t4.5 25.5l5 33.5h68q-2 -37 -13.5 -84.5t-34.5 -98.5zM235 439q12 10 24.5 22t23.5 27t18 33.5t7 41.5q0 24 -6.5 39.5t-16 24t-20.5 12t-20 3.5q-23 0 -36 -9t-20.5 -21
t-9.5 -25.5t-2 -22.5q0 -18 6 -36t14.5 -34.5t18.5 -30.5t19 -24zM209 339q-24 -18 -42.5 -34.5t-31 -34.5t-19.5 -39.5t-7 -50.5q0 -34 12 -56.5t28.5 -36.5t34.5 -20t30 -6q80 0 128 80z" />
    <glyph glyph-name="quotesingle" unicode="'" horiz-adv-x="157" 
d="M48 718h61v-255h-61v255z" />
    <glyph glyph-name="parenleft" unicode="(" horiz-adv-x="273" 
d="M245 733l-47 -111.5t-35.5 -107t-22 -121.5t-7.5 -156q0 -62 8.5 -117t23.5 -108t35.5 -106.5l44.5 -112.5h-48q-32 58 -58 112.5t-44.5 110t-28.5 115.5t-10 130q0 66 9 126.5t27 118t44 113.5t59 114h50z" />
    <glyph glyph-name="parenright" unicode=")" horiz-adv-x="273" 
d="M29 -207l46.5 111t35 106.5t22 122t7.5 156.5q0 62 -8 117t-23 108t-35.5 106.5t-45.5 112.5h48q32 -59 58 -113t44.5 -109.5t28.5 -115.5t10 -130q0 -66 -9 -126.5t-27 -118t-43.5 -113.5t-58.5 -114h-50z" />
    <glyph glyph-name="asterisk" unicode="*" horiz-adv-x="319" 
d="M48 646l87 -38v110h49v-110l86 38l16 -55l-89 -34l56 -91l-40 -35l-54 94l-53 -94l-41 35l55 91l-88 34z" />
    <glyph glyph-name="plus" unicode="+" horiz-adv-x="479" 
d="M210 505h60v-216h177v-73h-177v-216h-60v216h-178v73h178v216z" />
    <glyph glyph-name="comma" unicode="," horiz-adv-x="228" 
d="M72 106h85v-98q0 -51 -11 -81t-25.5 -46t-28.5 -21.5t-20 -6.5v46q13 1 21 10.5t13 24t7 31.5t2 35h-43v106z" />
    <glyph glyph-name="hyphen" unicode="-" horiz-adv-x="273" 
d="M237 232h-201v90h201v-90z" />
    <glyph glyph-name="hyphen" unicode="&#xad;" horiz-adv-x="273" 
d="M237 232h-201v90h201v-90z" />
    <glyph glyph-name="period" unicode="." horiz-adv-x="228" 
d="M157 0h-85v106h85v-106z" />
    <glyph glyph-name="slash" unicode="/" horiz-adv-x="228" 
d="M41 -19h-55l201 756h55z" />
    <glyph glyph-name="zero" unicode="0" 
d="M426 342q0 -55 -7.5 -118t-29 -117t-60.5 -90t-101 -36t-100.5 36t-60 90t-29 117t-7.5 118t7.5 118t29 117t60 90t100.5 36t101 -36t60.5 -90t29 -117t7.5 -118zM349 342q0 132 -29.5 207t-91.5 75t-91 -75t-29 -207t29 -207t91 -75t91.5 75t29.5 207z" />
    <glyph glyph-name="one" unicode="1" 
d="M294 0h-77v499h-135v70q35 3 60.5 8t44 18.5t30.5 39t21 68.5h56v-703z" />
    <glyph glyph-name="two" unicode="2" 
d="M36 451q0 86 22.5 136t54 76t65.5 33t58 7q37 0 70 -14.5t57.5 -41.5t38.5 -66t14 -88q0 -47 -12 -81.5t-33 -61.5t-49 -49t-60 -43l-60 -40q-30 -20 -48.5 -39.5t-29.5 -37.5t-16 -33t-6 -25h314v-83h-394q3 109 39.5 173.5t95.5 105.5l76 54q23 16 42.5 31t33.5 33
t22 41.5t8 58.5q0 21 -6 43.5t-19.5 41t-35.5 30.5t-53 12q-41 0 -64 -20t-34 -48t-14 -57.5t-4 -47.5h-73z" />
    <glyph glyph-name="three" unicode="3" 
d="M184 400q9 -1 18 -1h19q21 0 41 5.5t35.5 19t25 35.5t9.5 55q0 16 -4.5 35t-16.5 35.5t-33 28t-53 11.5q-39 0 -60.5 -16.5t-33 -40.5t-15 -50t-4.5 -44h-70q0 39 8 79.5t28.5 74t56.5 55t93 21.5q42 0 75 -14t56 -38.5t35 -58.5t12 -74q0 -34 -7 -59t-18 -42.5
t-24 -28.5t-25 -15v-2q42 -17 69 -55t27 -109q0 -43 -11.5 -84t-36.5 -72.5t-64.5 -50.5t-94.5 -19q-32 0 -59 8.5t-48 22.5q-24 15 -39.5 37.5t-25.5 49t-14.5 56.5t-6.5 60h74q1 -25 5.5 -52t17 -50t36.5 -38t65 -15q55 0 90 37.5t35 98.5q0 44 -14 70t-34.5 39t-44 16.5
t-42.5 3.5q-8 0 -16 -0.5t-16 -0.5v76z" />
    <glyph glyph-name="four" unicode="4" 
d="M87 247h186v319h-2zM344 171v-171h-71v171h-252v86l263 446h60v-456h85v-76h-85z" />
    <glyph glyph-name="five" unicode="5" 
d="M120 409q19 17 46 30.5t66 13.5q35 0 69 -15t60.5 -43.5t43 -70.5t16.5 -96q0 -29 -7 -71.5t-29.5 -81.5t-63.5 -66.5t-108 -27.5q-29 0 -59.5 8t-57 30t-46 59.5t-24.5 96.5h75q5 -62 39 -90t83 -28q28 0 50 13t38 34.5t24.5 51t8.5 62.5q0 76 -37 116t-91 40
q-31 0 -58.5 -17.5t-47.5 -49.5l-62 4l43 377h298v-86h-244z" />
    <glyph glyph-name="six" unicode="6" 
d="M116 216q0 -28 7 -56t22 -50t37.5 -36t54.5 -14q26 0 47 12t36 33t23 50.5t8 65.5q0 23 -6 49t-19.5 48t-36 36.5t-55.5 14.5q-30 0 -52 -12t-37 -33t-22 -49t-7 -59zM342 516q-7 47 -29.5 77.5t-69.5 30.5q-42 0 -69 -30t-42 -72t-20.5 -86t-5.5 -72l2 -2q7 14 18 29.5
t27.5 28t39 20.5t52.5 8q26 0 57.5 -11t58.5 -37.5t45.5 -69t18.5 -105.5q0 -54 -13 -95.5t-42 -80.5q-12 -15 -24.5 -27.5t-29.5 -21.5t-39.5 -14t-52.5 -5q-17 0 -36.5 5t-39.5 17t-39 31.5t-34 48.5q-26 50 -35 112.5t-9 131.5q0 39 4 81.5t13 84.5t25 80t39.5 67
t56.5 46t76 17q25 0 53 -9t52.5 -31t41.5 -57.5t20 -89.5h-70z" />
    <glyph glyph-name="seven" unicode="7" 
d="M31 688h398v-77q-21 -27 -55 -82t-69 -133t-66 -178t-47 -218h-80q7 72 29.5 153t54.5 161.5t71 154.5t81 133h-317v86z" />
    <glyph glyph-name="eight" unicode="8" 
d="M226 406q48 0 75.5 32.5t27.5 80.5q0 16 -5 34.5t-17.5 34t-33.5 26t-52 10.5q-29 0 -47.5 -10.5t-29 -27t-14.5 -36t-4 -36.5q0 -25 8.5 -45t22 -34t31.5 -21.5t38 -7.5zM227 330q-30 0 -52.5 -11t-37 -29.5t-21.5 -42t-7 -47.5q0 -21 5 -45.5t18.5 -45.5t37 -35
t61.5 -14q19 0 40 5.5t37.5 20t27.5 40.5t11 67q0 36 -9.5 61.5t-26 42.5t-38 25t-46.5 8zM404 522q0 -38 -8 -63.5t-19.5 -42.5t-24.5 -26.5t-22 -15.5q29 -15 47.5 -36t29 -44.5t14 -47t3.5 -43.5q0 -42 -11.5 -82t-35 -71t-60.5 -50t-88 -19q-12 0 -28.5 2t-35.5 8
t-38 16.5t-36 27.5q-23 21 -35 45t-17.5 47t-6.5 42.5t-1 32.5q0 65 26 106.5t72 64.5q-38 17 -58 52t-20 85q0 27 8 61t28 63t53.5 49t85.5 20q48 0 81.5 -17t55 -43t31.5 -58t10 -63z" />
    <glyph glyph-name="nine" unicode="9" 
d="M226 314q14 0 33 5.5t36.5 22.5t29.5 48.5t12 83.5q0 30 -6.5 57t-20.5 48t-36 33t-53 12q-51 0 -81.5 -43t-30.5 -115q0 -51 11.5 -81t29 -45.5t38 -20.5t38.5 -5zM216 236q-40 0 -73.5 15.5t-57.5 45t-37.5 71t-13.5 94.5q0 48 12 91.5t35.5 77t58.5 53t80 19.5
q46 0 79 -16t55 -43t35.5 -61.5t20.5 -70.5t9 -71.5t2 -63.5q0 -19 -1.5 -55.5t-8.5 -80.5t-20 -90t-36 -84t-58 -62t-84 -24q-51 0 -84 20t-52.5 48.5t-27.5 61t-8 58.5h72q3 -54 28 -84.5t70 -30.5q60 0 92.5 63t46.5 200l-2 2q-16 -41 -54 -62t-78 -21z" />
    <glyph glyph-name="colon" unicode=":" horiz-adv-x="228" 
d="M157 410h-85v106h85v-106zM157 0h-85v106h85v-106z" />
    <glyph glyph-name="semicolon" unicode=";" horiz-adv-x="228" 
d="M72 410v106h85v-106h-85zM72 106h85v-98q0 -51 -11 -81t-25.5 -46t-28.5 -21.5t-20 -6.5v46q13 1 21 10.5t13 24t7 31.5t2 35h-43v106z" />
    <glyph glyph-name="less" unicode="&#x3c;" horiz-adv-x="479" 
d="M439 11l-400 207v70l400 207v-80l-319 -162l319 -162v-80z" />
    <glyph glyph-name="equal" unicode="=" horiz-adv-x="479" 
d="M447 115h-415v73h415v-73zM447 317h-415v73h415v-73z" />
    <glyph glyph-name="greater" unicode="&#x3e;" horiz-adv-x="479" 
d="M39 495l400 -207v-70l-400 -207v80l321 162l-321 162v80z" />
    <glyph glyph-name="question" unicode="?" 
d="M261 0h-80v102h80v-102zM46 493q1 25 3 50t8 48.5t18.5 46t35.5 43.5q24 23 55.5 34.5t63.5 11.5q34 0 65.5 -12.5t55.5 -37.5t38.5 -61.5t14.5 -84.5q0 -25 -4.5 -44.5t-13.5 -38.5t-24 -38.5t-36 -43.5l-32.5 -39t-22 -35.5t-12.5 -41.5t-4 -57v-10h-72q0 43 4 72
t13 52t24 44t37 48l33 42t20 31t9.5 29t2.5 36q0 16 -4 35.5t-15.5 37t-30.5 29.5t-49 12q-39 0 -61 -18.5t-32.5 -44t-13 -52.5t-2.5 -43h-72z" />
    <glyph glyph-name="at" unicode="@" horiz-adv-x="833" 
d="M543 556h56l-25 -106.5l-24 -99t-18 -78t-7 -42.5q0 -14 3.5 -21.5t14.5 -7.5q21 0 41.5 18.5t37 49t27 69.5t10.5 79q0 60 -18.5 108t-49.5 81t-73 51t-88 18q-55 0 -101 -25t-79 -68.5t-51.5 -102t-18.5 -124.5t19.5 -123t54 -99t81.5 -66t101 -24q57 0 110.5 30.5
t88.5 83.5h55q-40 -82 -108.5 -129t-147.5 -47q-66 0 -123.5 29.5t-99.5 80.5t-66.5 120.5t-24.5 149.5q0 78 24.5 146.5t67 119.5t99 80.5t119.5 29.5q57 0 108 -23t90 -64.5t61.5 -99t22.5 -125.5t-20.5 -121.5t-50.5 -91t-64 -57t-61 -19.5q-21 0 -36 15.5t-16 47.5
l-2 -1q-18 -23 -44 -42.5t-55 -19.5q-26 0 -48 13t-38 34.5t-25 50.5t-9 62q0 51 13.5 100.5t38 88.5t59.5 63t78 24q29 0 53.5 -17.5t40.5 -59.5zM501 409q0 37 -20 64t-47 27t-50 -19t-39.5 -47.5t-25.5 -63t-9 -65.5q0 -43 19 -70t50 -27q26 0 48 20t38.5 50t26 65.5
t9.5 65.5z" />
    <glyph glyph-name="A" unicode="A" horiz-adv-x="547" 
d="M362 295l-87 316h-1l-95 -316h183zM155 209l-62 -209h-81l221 718h90l213 -718h-87l-58 209h-236z" />
    <glyph glyph-name="B" unicode="B" horiz-adv-x="547" 
d="M140 83h170q63 0 94 35.5t31 95.5q0 38 -12.5 61.5t-32 37t-44.5 18t-49 4.5h-157v-252zM61 718h259q41 0 72 -14.5t52 -39.5t31.5 -57.5t10.5 -69.5q0 -18 -3 -38.5t-12 -40.5t-24 -38.5t-39 -32.5q14 -7 32.5 -18t35 -30.5t27.5 -50t11 -76.5q0 -43 -13 -81.5
t-38 -67.5t-62.5 -46t-86.5 -17h-253v718zM140 414h144q57 0 90 25t33 91q0 51 -28 78t-95 27h-144v-221z" />
    <glyph glyph-name="C" unicode="C" horiz-adv-x="592" 
d="M476 502q-9 47 -28 76.5t-42.5 45.5t-48.5 21.5t-46 5.5q-40 0 -75 -18t-61.5 -53.5t-41.5 -89t-15 -124.5q0 -63 10 -118t33 -95t60 -63t92 -23q19 0 44.5 7.5t49.5 28.5t44.5 59.5t30.5 101.5h77q-8 -68 -27.5 -115t-44.5 -78.5t-53 -49.5t-54 -27t-47 -11t-32 -2
q-50 0 -98 21t-85 66.5t-59.5 118t-22.5 176.5q0 83 19 151.5t54 118t86 77t116 27.5q57 0 100 -20t73 -52.5t47 -75t22 -87.5h-77z" />
    <glyph glyph-name="D" unicode="D" horiz-adv-x="592" 
d="M146 83h154q78 0 124.5 71.5t46.5 208.5t-47.5 204.5t-129.5 67.5h-148v-552zM66 718h239q58 0 104 -25.5t78 -71.5t49 -110t17 -142q0 -60 -12 -125.5t-41 -119.5t-77.5 -89t-120.5 -35h-236v718z" />
    <glyph glyph-name="E" unicode="E" horiz-adv-x="547" 
d="M505 0h-434v718h428v-86h-349v-220h323v-86h-323v-240h355v-86z" />
    <glyph glyph-name="F" unicode="F" horiz-adv-x="501" 
d="M150 0h-79v718h407v-86h-328v-220h288v-86h-288v-326z" />
    <glyph glyph-name="G" unicode="G" horiz-adv-x="638" 
d="M319 384h258v-384h-52l-18 93q-30 -51 -82 -81.5t-112 -30.5q-38 0 -66.5 7.5t-50 19.5t-37 26t-27.5 28q-34 39 -52.5 80.5t-27.5 81.5t-11 76t-2 65q0 66 16.5 132t51 119.5t87 87t124.5 33.5q41 0 83 -14.5t77 -43.5t59.5 -74t30.5 -105h-77q-9 47 -29 76.5t-44.5 46
t-52 22.5t-51.5 6q-40 0 -75 -19t-61.5 -55.5t-41.5 -91t-15 -124.5q0 -55 8.5 -108.5t30.5 -95.5t60 -67.5t97 -25.5q11 0 25.5 1.5t30 6t32.5 13.5t33 25q39 38 52 85.5t13 105.5h-184v83z" />
    <glyph glyph-name="H" unicode="H" horiz-adv-x="592" 
d="M450 718h80v-718h-80v335h-307v-335h-80v718h80v-297h307v297z" />
    <glyph glyph-name="I" unicode="I" horiz-adv-x="228" 
d="M154 0h-80v718h80v-718z" />
    <glyph glyph-name="J" unicode="J" horiz-adv-x="410" 
d="M89 231v-50q0 -65 23.5 -91t65.5 -26q27 0 45.5 9.5t29 26t15 39.5t4.5 49v530h79v-524q0 -63 -15.5 -104t-39.5 -65.5t-54.5 -34t-60.5 -9.5q-51 0 -83.5 18.5t-51 46t-25.5 58.5t-7 56v71h75z" />
    <glyph glyph-name="K" unicode="K" horiz-adv-x="547" 
d="M142 0h-80v718h80v-348l286 348h109l-245 -290l251 -428h-103l-205 361l-93 -109v-252z" />
    <glyph glyph-name="L" unicode="L" 
d="M142 86h298v-86h-378v718h80v-632z" />
    <glyph glyph-name="M" unicode="M" horiz-adv-x="683" 
d="M547 0v424q0 8 0.5 27.5t0.5 44.5q0 26 0.5 54t0.5 53h-2l-166 -603h-78l-166 602h-2q0 -25 0.5 -53t0.5 -53t0.5 -44.5t0.5 -27.5v-424h-77v718h114l168 -607h1l168 607h113v-718h-77z" />
    <glyph glyph-name="N" unicode="N" horiz-adv-x="592" 
d="M453 718h77v-718h-90l-299 581h-2v-581h-77v718h95l294 -580h2v580z" />
    <glyph glyph-name="O" unicode="O" horiz-adv-x="638" 
d="M606 359q0 -39 -6 -82t-19.5 -85t-35.5 -80t-54 -67.5t-74.5 -46.5t-97.5 -17t-97.5 17t-74.5 46.5t-54 67.5t-35.5 80t-19.5 85t-6 82t6 82t19.5 85t35.5 80t54 67.5t74.5 46.5t97.5 17t97.5 -17t74.5 -46.5t54 -67.5t35.5 -80t19.5 -85t6 -82zM524 359q0 63 -14 116.5
t-40.5 92.5t-64.5 61t-86 22t-86 -22t-64.5 -61t-40.5 -92.5t-14 -116.5t14 -116.5t40.5 -92.5t64.5 -61t86 -22t86 22t64.5 61t40.5 92.5t14 116.5z" />
    <glyph glyph-name="P" unicode="P" horiz-adv-x="547" 
d="M150 0h-79v718h264q41 0 73.5 -15.5t55 -42.5t34.5 -64t12 -80q0 -38 -9.5 -75.5t-30 -68.5t-54 -50t-81.5 -19h-185v-303zM150 386h158q27 0 49 6.5t37.5 21.5t24.5 40t9 61q0 34 -9 57t-24.5 37t-37 20t-45.5 6h-162v-249z" />
    <glyph glyph-name="Q" unicode="Q" horiz-adv-x="638" 
d="M561 -56l-90 85q-29 -23 -67 -35.5t-85 -12.5q-55 0 -97.5 17t-74.5 46.5t-54 67.5t-35.5 80t-19.5 85t-6 82t6 82t19.5 85t35.5 80t54 67.5t74.5 46.5t97.5 17t97.5 -17t74.5 -46.5t54 -67.5t35.5 -80t19.5 -85t6 -82q0 -34 -4.5 -71.5t-14.5 -74.5t-26.5 -71.5
t-39.5 -63.5l80 -76zM385 208l74 -71q32 38 48.5 95.5t16.5 126.5q0 63 -14 116.5t-40.5 92.5t-64.5 61t-86 22t-86 -22t-64.5 -61t-40.5 -92.5t-14 -116.5t14 -116.5t40.5 -92.5t64.5 -61t86 -22q49 0 87 23l-62 58z" />
    <glyph glyph-name="R" unicode="R" horiz-adv-x="592" 
d="M152 391h184q22 0 43.5 4.5t38.5 18t27.5 37.5t10.5 64q0 42 -11 66t-27 36t-34 15t-33 3h-199v-244zM152 0h-80v718h272q36 0 71 -9t62.5 -30.5t44 -59t16.5 -94.5q0 -40 -7.5 -68t-19.5 -47.5t-26.5 -33t-28.5 -23.5q12 -6 24 -14t22 -22.5t16 -38t8 -60.5l6 -130
q1 -30 5.5 -44.5t23.5 -27.5v-16h-97q-5 16 -7.5 42.5t-4.5 53.5t-2.5 50.5t-0.5 33.5q0 22 -3 45t-14 41.5t-31.5 30t-56.5 11.5h-192v-308z" />
    <glyph glyph-name="S" unicode="S" horiz-adv-x="547" 
d="M418 508q-2 42 -15.5 70t-34.5 45t-46 24t-50 7q-19 0 -42.5 -4.5t-44 -18t-34.5 -38t-14 -65.5q0 -23 6 -38.5t16 -26t22.5 -16.5t25.5 -9l168 -48q28 -8 52.5 -23t42.5 -38t28 -55.5t10 -75.5q0 -64 -21.5 -106t-55.5 -66.5t-74.5 -34.5t-78.5 -10q-41 0 -70 6.5
t-50 17t-34.5 22.5t-23.5 23q-38 42 -49 86.5t-11 95.5h75q0 -49 15 -81t38 -51.5t52 -27.5t57 -8q22 0 48.5 4.5t50 17.5t39.5 36.5t16 62.5q0 28 -6 47.5t-20 34t-38.5 25t-60.5 20.5l-120 34q-15 4 -36.5 13.5t-41.5 28.5t-34 49.5t-14 77.5q0 42 11.5 82t36.5 71t63 50
t92 19q51 0 88 -11.5t62 -30.5t40.5 -43t23.5 -49.5t11 -50t4 -44.5h-74z" />
    <glyph glyph-name="T" unicode="T" horiz-adv-x="501" 
d="M12 718h478v-86h-199v-632h-80v632h-199v86z" />
    <glyph glyph-name="U" unicode="U" horiz-adv-x="592" 
d="M528 718v-466q0 -55 -14.5 -104.5t-43.5 -86.5t-74 -58.5t-105 -21.5t-102.5 21.5t-70 57.5t-40.5 82.5t-13 96.5v479h79v-452q0 -59 13.5 -97t34.5 -61t47.5 -32t53.5 -9t55 9t50 31t36 60t14 97v454h80z" />
    <glyph glyph-name="V" unicode="V" horiz-adv-x="547" 
d="M441 718h90l-215 -718h-85l-215 718h89l169 -612z" />
    <glyph glyph-name="W" unicode="W" horiz-adv-x="774" 
d="M250 0h-83l-154 718h87l109 -584h2l132 584h87l132 -584h1l110 584h88l-155 -718h-83l-135 595h-1z" />
    <glyph glyph-name="X" unicode="X" horiz-adv-x="547" 
d="M532 0h-99l-159 295l-163 -295h-96l211 368l-197 350h100l149 -275l150 275h95l-198 -350z" />
    <glyph glyph-name="Y" unicode="Y" horiz-adv-x="547" 
d="M313 0h-79v289l-222 429h92l170 -345l168 345h93l-222 -429v-289z" />
    <glyph glyph-name="Z" unicode="Z" horiz-adv-x="501" 
d="M482 0h-463v81l361 551h-334v86h436v-84l-362 -548h362v-86z" />
    <glyph glyph-name="bracketleft" unicode="[" horiz-adv-x="228" 
d="M117 -125h88v-71h-153v918h153v-71h-88v-776z" />
    <glyph glyph-name="backslash" unicode="\" horiz-adv-x="228" 
d="M-14 737h54l202 -756h-55z" />
    <glyph glyph-name="bracketright" unicode="]" horiz-adv-x="228" 
d="M111 651h-88v71h154v-918h-154v71h88v776z" />
    <glyph glyph-name="asciicircum" unicode="^" horiz-adv-x="385" 
d="M333 264l-140 344l-140 -344h-65l175 424h59l174 -424h-63z" />
    <glyph glyph-name="underscore" unicode="_" 
d="M456 -75v-50h-456v50h456z" />
    <glyph glyph-name="grave" unicode="`" horiz-adv-x="273" 
d="M12 735h88l73 -142h-55z" />
    <glyph glyph-name="a" unicode="a" 
d="M315 267q-4 -4 -10.5 -8t-19.5 -7.5t-34.5 -8t-54.5 -9.5q-14 -2 -30 -6.5t-29.5 -13.5t-23 -24.5t-9.5 -40.5q0 -43 18.5 -67t59.5 -24q25 0 49 9.5t42.5 26t30 39t11.5 48.5v86zM51 364q1 47 14 80t36 54t55 30.5t72 9.5q13 0 39.5 -4t53 -19t46.5 -44t20 -79v-301
q0 -31 24 -31q5 0 11.5 1t12.5 3v-64q-10 -3 -19 -6.5t-21 -3.5q-24 0 -38.5 7t-22.5 18t-11 25.5t-4 29.5q-11 -14 -24.5 -29t-32 -27.5t-43 -20.5t-55.5 -8q-60 0 -97 41.5t-37 109.5q0 16 3.5 41.5t17 50.5t39 45t70.5 27l119 18q6 1 13 3.5t12.5 9t9 18t3.5 31.5
q0 42 -25 64t-76 22q-31 0 -49.5 -10.5t-29 -25.5t-14.5 -33t-6 -33h-66z" />
    <glyph glyph-name="b" unicode="b" 
d="M350 263q0 25 -3 59t-14.5 64.5t-35 51.5t-65.5 21q-39 0 -62 -22.5t-34.5 -56.5t-15 -72.5t-3.5 -70.5q0 -52 12 -86t29.5 -54t38 -28t37.5 -8q29 0 51 15.5t36.5 42.5t21.5 64t7 80zM48 0v718h72v-261h1q47 81 124 81q43 0 76 -20t56 -55t35 -83t12 -103
q0 -47 -9 -98.5t-30.5 -94.5t-57.5 -71t-91 -28q-27 0 -47 8.5t-34 20.5t-23 26t-15 25h-1v-65h-68z" />
    <glyph glyph-name="c" unicode="c" horiz-adv-x="410" 
d="M322 347q-7 53 -31.5 82.5t-70.5 29.5q-33 0 -56 -17.5t-37 -46t-20 -63.5t-6 -70q0 -34 4.5 -69.5t17.5 -65t36 -48t60 -18.5t65 32t38 92h69q-3 -31 -13 -66t-30 -65t-52.5 -49.5t-79.5 -19.5q-45 0 -80.5 19.5t-60.5 54.5t-38 83t-13 105q0 61 12 114t37.5 92.5
t64.5 62t92 22.5q42 0 71.5 -17t49 -44.5t29 -61.5t11.5 -68h-69z" />
    <glyph glyph-name="d" unicode="d" 
d="M103 263q0 -43 7 -80t21.5 -64t36 -42.5t51.5 -15.5q17 0 37.5 8t38 28t29.5 54t12 86q0 32 -3.5 70.5t-15 72.5t-34.5 56.5t-62 22.5q-42 0 -65.5 -21t-35.5 -51.5t-14.5 -64.5t-2.5 -59zM409 0h-68v72h-1q-12 -27 -26.5 -43.5t-31 -26.5t-33 -13.5t-32.5 -3.5
q-55 0 -91 28t-57.5 71t-30.5 94.5t-9 98.5q0 55 12 102.5t34.5 83t55.5 55.5t76 20q29 0 50.5 -9.5t36.5 -23.5t25 -29.5t16 -26.5h2v269h72v-718z" />
    <glyph glyph-name="e" unicode="e" 
d="M349 303q-2 30 -8.5 58.5t-20 50t-36 34.5t-55.5 13q-25 0 -46.5 -13t-37.5 -34.5t-25.5 -50t-9.5 -58.5h239zM418 164q-1 -9 -5.5 -26.5t-13.5 -38t-23 -41.5t-35 -37q-7 -6 -16.5 -12.5t-23 -11.5t-32 -8.5t-44.5 -3.5q-45 0 -81 19.5t-60.5 54.5t-37.5 83t-13 105
q0 61 12 114t37.5 92.5t64.5 62t92 22.5q46 0 81 -21.5t57.5 -61.5t34 -96.5t11.5 -125.5h-313q0 -82 31 -127t94 -45q25 0 45.5 10.5t34.5 26.5t21.5 33.5t8.5 32.5h73z" />
    <glyph glyph-name="f" unicode="f" horiz-adv-x="228" 
d="M143 450v-450h-72v450h-59v74h59v89q0 60 29 87.5t82 27.5q8 0 16 -0.5t17 -1.5v-79q-7 1 -14.5 1.5t-14.5 0.5q-23 0 -33 -14.5t-10 -46.5v-64h72v-74h-72z" />
    <glyph glyph-name="g" unicode="g" 
d="M409 43q0 -19 -1 -45.5t-6.5 -56t-17.5 -58.5t-34 -51.5t-56 -37t-84 -14.5q-19 0 -45 5t-51 21t-44 47t-24 83h72q5 -31 18 -48t28.5 -24.5t29.5 -9t21 -1.5q45 0 69.5 18.5t36 46t14 58t2.5 54.5v29q-16 -32 -44.5 -53t-71.5 -21q-55 0 -91 28t-57.5 71t-30.5 94.5
t-9 98.5q0 55 12 102.5t35 83t56 55.5t76 20q29 0 50.5 -9.5t36.5 -24t25 -30t17 -27.5v77h68v-481zM108 263q0 -43 7 -80t21 -64t35.5 -42.5t51.5 -15.5q17 0 37.5 8t38.5 28t30 54t12 86q0 32 -3.5 70.5t-15.5 72.5t-35 56.5t-62 22.5q-42 0 -65.5 -21t-35 -51.5
t-14 -64.5t-2.5 -59z" />
    <glyph glyph-name="h" unicode="h" 
d="M403 0h-72v342q0 53 -17 85t-69 32q-22 0 -43.5 -8.5t-38 -29t-27 -54t-10.5 -82.5v-285h-73v718h73v-265h1q7 12 18 27t26.5 28t35.5 21.5t46 8.5q25 0 51.5 -7.5t48.5 -27.5t36 -55.5t14 -91.5v-356z" />
    <glyph glyph-name="i" unicode="i" horiz-adv-x="182" 
d="M55 618v100h72v-100h-72zM127 0h-72v524h72v-524z" />
    <glyph glyph-name="j" unicode="j" horiz-adv-x="182" 
d="M127 618h-72v100h72v-100zM127 -77q0 -17 -2 -40t-12.5 -43.5t-33 -35t-62.5 -14.5q-14 0 -30 3v76h15q16 0 26 1.5t16 8t8.5 19.5t2.5 35v591h72v-601z" />
    <glyph glyph-name="k" unicode="k" horiz-adv-x="410" 
d="M411 0h-93l-133 264l-60 -66v-198h-70v718h70v-415l184 221h92l-164 -196z" />
    <glyph glyph-name="l" unicode="l" horiz-adv-x="182" 
d="M127 0h-72v718h72v-718z" />
    <glyph glyph-name="m" unicode="m" horiz-adv-x="683" 
d="M53 524h68v-75h2l16 25.5t26 29.5t37.5 24t50.5 10t48.5 -9.5t32.5 -22.5t20.5 -28l12.5 -25q13 18 26 34t28 27t33.5 17.5t43.5 6.5q17 0 40 -7t43.5 -26t34.5 -53.5t14 -89.5v-362h-71v338q0 54 -17 87.5t-63 33.5q-23 0 -41.5 -12t-32 -31.5t-20.5 -45t-7 -51.5v-319
h-72v362q0 16 -3 33.5t-10.5 31.5t-20.5 23t-33 9q-15 0 -35 -7t-37 -26.5t-29 -53.5t-12 -87v-285h-73v524z" />
    <glyph glyph-name="n" unicode="n" 
d="M403 0h-72v322q0 68 -19.5 102.5t-72.5 34.5q-15 0 -35 -7t-37 -26.5t-29 -53.5t-12 -87v-285h-73v524h68v-75h2q6 10 16.5 25.5t26.5 29.5t37.5 24t49.5 10q25 0 51.5 -7.5t48.5 -27.5t36 -55.5t14 -91.5v-356z" />
    <glyph glyph-name="o" unicode="o" 
d="M103 262q0 -26 5 -60.5t19 -65.5t38 -52.5t63 -21.5t63 21.5t37.5 52.5t18.5 65.5t5 60.5t-5 60.5t-18.5 65.5t-37.5 52.5t-63 21.5t-63 -21.5t-38 -52.5t-19 -65.5t-5 -60.5zM29 262q0 51 12 100.5t36.5 88.5t62 63t88.5 24t89 -24t62.5 -63t36.5 -88.5t12 -100.5
t-12 -100.5t-36.5 -88.5t-62.5 -63t-89 -24t-88.5 24t-62 63t-36.5 88.5t-12 100.5z" />
    <glyph glyph-name="p" unicode="p" 
d="M48 524h68v-75h1q6 11 16 26.5t25.5 29.5t36.5 23.5t50 9.5q43 0 76 -20t56 -55.5t35 -83t12 -102.5q0 -47 -9 -98.5t-30.5 -94.5t-57.5 -71t-91 -28q-44 0 -72.5 21t-42.5 49h-1v-262h-72v731zM117 237q0 -52 12 -86t29.5 -54t38 -28t37.5 -8q29 0 51 15.5t36.5 42.5
t21.5 64t7 80q0 25 -3 59t-14.5 64.5t-35 51.5t-65.5 21q-39 0 -62 -22.5t-34.5 -56.5t-15 -72.5t-3.5 -70.5z" />
    <glyph glyph-name="q" unicode="q" 
d="M336 237q0 32 -3.5 70.5t-15 72.5t-34.5 56.5t-62 22.5q-42 0 -65.5 -21t-35.5 -51.5t-14.5 -64.5t-2.5 -59q0 -43 7 -80t21.5 -64t36 -42.5t51.5 -15.5q17 0 37.5 8t38 28t29.5 54t12 86zM405 -207h-72v262h-1q-14 -28 -42.5 -49t-72.5 -21q-55 0 -91 28t-57.5 71
t-30.5 94.5t-9 98.5q0 55 12 102.5t34.5 83t55.5 55.5t76 20q29 0 50.5 -9.5t36.5 -23.5t25 -29.5t16 -26.5h2v75h68v-731z" />
    <glyph glyph-name="r" unicode="r" horiz-adv-x="273" 
d="M135 0h-72v524h68v-88h2q22 46 50.5 74t70.5 28q7 0 10.5 -0.5t8.5 -2.5v-91h-28q-25 0 -45.5 -11t-34.5 -30.5t-22 -45t-8 -53.5v-304z" />
    <glyph glyph-name="s" unicode="s" horiz-adv-x="410" 
d="M297 374q0 12 -3 27.5t-13.5 29t-30.5 22.5t-54 9q-8 0 -22.5 -2.5t-28.5 -10t-24.5 -22.5t-10.5 -39q0 -16 4.5 -26.5t13.5 -18t23.5 -13.5t35.5 -12l73 -22q67 -20 93.5 -52.5t26.5 -85.5q0 -41 -13 -73t-35.5 -54t-53.5 -34t-67 -12q-64 0 -100.5 19.5t-55 48
t-23.5 60t-6 55.5h70q1 -15 4.5 -34t15 -35t34 -27t60.5 -11q39 0 68.5 19.5t29.5 63.5q0 16 -4.5 27t-14.5 19.5t-26.5 15t-39.5 13.5l-84 25q-45 14 -72 43.5t-27 83.5q0 43 13.5 74.5t36 52t52 30.5t61.5 10q57 0 90 -22t49.5 -50.5t20.5 -55t4 -36.5h-70z" />
    <glyph glyph-name="t" unicode="t" horiz-adv-x="228" 
d="M142 450v-340q0 -15 5 -23.5t11.5 -12.5t14 -4.5t13.5 -0.5h25v-69q-20 -2 -34.5 -4.5t-19.5 -2.5q-27 0 -44 8.5t-26.5 23.5t-13 35.5t-3.5 44.5v345h-58v74h58v145h72v-145h69v-74h-69z" />
    <glyph glyph-name="u" unicode="u" 
d="M333 0v76l-1 2q-23 -46 -53.5 -69.5t-82.5 -23.5q-24 0 -49 7.5t-45 26.5t-33 50t-13 78v377h72v-348q0 -32 6.5 -54t17.5 -35.5t26 -19.5t33 -6q34 0 57 16.5t36.5 42t19 56.5t5.5 60v288h72v-524h-68z" />
    <glyph glyph-name="v" unicode="v" horiz-adv-x="410" 
d="M325 524h79l-164 -524h-77l-157 524h85l111 -427h2z" />
    <glyph glyph-name="w" unicode="w" horiz-adv-x="592" 
d="M210 0h-75l-123 524h79l81 -412h2l82 412h81l84 -412h1l87 412h73l-125 -524h-75l-87 405h-2z" />
    <glyph glyph-name="x" unicode="x" horiz-adv-x="410" 
d="M402 0h-92l-106 197l-104 -197h-91l151 269l-144 255h93l99 -185l100 185h88l-145 -255z" />
    <glyph glyph-name="y" unicode="y" horiz-adv-x="410" 
d="M322 524h79l-75 -257t-79 -257l-29.5 -90t-23.5 -62t-22 -39.5t-24 -21.5t-29.5 -9t-39.5 -2q-8 0 -15.5 2.5t-15.5 5.5v80q7 -3 18 -6t25 -3t23 3.5t17 16.5t16 36.5l21 64.5l-159 538h82l114 -427h2z" />
    <glyph glyph-name="z" unicode="z" horiz-adv-x="410" 
d="M121 73h264v-73h-360v69l259 381h-239v74h333v-73z" />
    <glyph glyph-name="braceleft" unicode="{" horiz-adv-x="274" 
d="M34 294q29 0 48 36t19 91v172q0 31 7 55t19 40.5t27 25t31 8.5h54v-64h-35q-22 0 -30 -24.5t-8 -58.5v-170q0 -37 -9 -62.5t-21 -42t-24.5 -25t-18.5 -10.5v-2q6 -2 18.5 -10t24.5 -24.5t21 -43t9 -65.5v-169q0 -33 8 -57.5t30 -24.5h35v-65h-54q-16 0 -31 8.5t-27 25
t-19 40.5t-7 55v171q0 57 -19 93.5t-48 36.5v60z" />
    <glyph glyph-name="bar" unicode="|" horiz-adv-x="213" 
d="M137 775v-1000h-60v1000h60z" />
    <glyph glyph-name="braceright" unicode="}" horiz-adv-x="274" 
d="M239 234q-29 0 -47.5 -36.5t-18.5 -93.5v-171q0 -62 -25.5 -95.5t-57.5 -33.5h-56v65h37q21 0 29.5 24.5t8.5 57.5v169q0 39 9 65.5t20.5 43t23.5 24.5t18 10v2q-6 2 -18 10.5t-23.5 25t-20.5 42t-9 62.5v170q0 34 -8.5 58.5t-29.5 24.5h-37v64h56q32 0 57.5 -33.5
t25.5 -95.5v-172q0 -55 18.5 -91t47.5 -36v-60z" />
    <glyph glyph-name="asciitilde" unicode="~" horiz-adv-x="479" 
d="M429 270q-18 -36 -44 -61t-59 -25q-23 0 -43 9.5t-40 23.5t-43 24.5t-51 10.5q-14 0 -24.5 -6.5t-19 -16.5t-14.5 -23t-11 -26l-30 56q7 16 16 31.5t21 27.5t28 19.5t37 7.5t45 -9.5t47 -22.5q31 -17 51.5 -26.5t31.5 -9.5q12 0 22.5 6.5t19 16.5t16 23l14.5 26z" />
    <glyph glyph-name="Euro" 
d="M418 534q-16 37 -48 63.5t-85 26.5q-32 0 -54.5 -16t-37.5 -41.5t-23.5 -57.5t-10.5 -65h234l-20 -72h-216v-71h195l-19 -72h-172q5 -77 39 -123t82 -46q22 0 44.5 7.5t41 18.5t32 23t18.5 22v-99q-3 -3 -14 -11t-28 -17t-40 -16t-49 -7q-88 0 -139 63t-64 185h-64l20 72
h40v71h-59l20 72h41q11 123 62.5 191t146.5 68q54 0 93.5 -21.5t59.5 -52.5z" />
    <glyph glyph-name="Euro" unicode="&#x20ac;" 
d="M418 534q-16 37 -48 63.5t-85 26.5q-32 0 -54.5 -16t-37.5 -41.5t-23.5 -57.5t-10.5 -65h234l-20 -72h-216v-71h195l-19 -72h-172q5 -77 39 -123t82 -46q22 0 44.5 7.5t41 18.5t32 23t18.5 22v-99q-3 -3 -14 -11t-28 -17t-40 -16t-49 -7q-88 0 -139 63t-64 185h-64l20 72
h40v71h-59l20 72h41q11 123 62.5 191t146.5 68q54 0 93.5 -21.5t59.5 -52.5z" />
    <glyph glyph-name="quotesinglbase" unicode="&#x201a;" horiz-adv-x="182" 
d="M43 106h86v-98q0 -58 -18 -100.5t-68 -56.5v47q16 3 25 14.5t13 26.5t5 31.5t1 29.5h-44v106z" />
    <glyph glyph-name="florin" unicode="&#x192;" 
d="M399 644q-14 7 -25 12t-23 5q-16 0 -27.5 -10t-19.5 -24.5t-12.5 -31.5t-6.5 -31l-16 -103h93v-70h-104l-49 -327q-11 -76 -27.5 -128t-38 -83.5t-47 -45.5t-54.5 -14q-22 0 -32 3.5t-19 8.5l13 81q8 -5 18 -9.5t23 -4.5q20 0 33.5 12t23 34.5t16 54.5t12.5 73l53 345
h-90v70h102l22 124q5 27 16 54t27.5 48.5t38 35.5t48.5 14q26 0 38.5 -4.5t25.5 -10.5z" />
    <glyph glyph-name="quotedblbase" unicode="&#x201e;" horiz-adv-x="273" 
d="M157 106h85v-98q0 -58 -18 -100.5t-67 -56.5v47q16 3 24.5 14.5t12.5 26.5t5 31.5t1 29.5h-43v106zM22 106h85v-98q0 -58 -18 -100.5t-67 -56.5v47q16 3 24.5 14.5t12.5 26.5t5 31.5t1 29.5h-43v106z" />
    <glyph glyph-name="ellipsis" unicode="&#x2026;" horiz-adv-x="820" 
d="M726 0h-86v106h86v-106zM453 0h-85v106h85v-106zM179 0h-85v106h85v-106z" />
    <glyph glyph-name="dagger" unicode="&#x2020;" 
d="M267 -159h-77v590h-155v76h155v211h77v-211h154v-76h-154v-590z" />
    <glyph glyph-name="daggerdbl" unicode="&#x2021;" 
d="M267 119h154v-76h-154v-202h-77v202h-155v76h155v320h-155v76h155v203h77v-203h154v-76h-154v-320z" />
    <glyph glyph-name="circumflex" unicode="&#x2c6;" horiz-adv-x="273" 
d="M82 593h-65l82 142h76l81 -142h-66l-54 94z" />
    <glyph glyph-name="perthousand" unicode="&#x2030;" horiz-adv-x="820" 
d="M120 -19h-45l326 722h46zM611 149q0 -38 22 -65.5t54 -27.5q16 0 30 7.5t24.5 20t16.5 29.5t6 36q0 39 -22.5 66t-53.5 27q-17 0 -31 -7.5t-24 -20.5t-16 -29.5t-6 -35.5zM560 149q0 33 10 61.5t27 49.5t40.5 33t49.5 12q27 0 50 -12.5t40.5 -33.5t27.5 -49.5t10 -60.5
t-10 -60.5t-27 -49.5t-40 -33.5t-50 -12.5t-50 12t-40.5 33t-27.5 49.5t-10 61.5zM313 149q0 -38 22 -65.5t54 -27.5q16 0 30 7.5t24.5 20t16.5 29.5t6 36q0 39 -22.5 66t-54.5 27q-16 0 -30 -7.5t-24 -20.5t-16 -29.5t-6 -35.5zM262 149q0 33 10 61.5t27 49.5t40.5 33
t49.5 12q27 0 50 -12.5t40.5 -33.5t27.5 -49.5t10 -60.5t-10 -60.5t-27 -49.5t-40.5 -33.5t-50.5 -12.5q-26 0 -49.5 12t-40.5 33t-27 49.5t-10 61.5zM57 539q0 -38 22.5 -65t54.5 -27q16 0 29.5 7t24 19.5t16.5 29.5t6 36q0 39 -22 66t-54 27q-16 0 -30 -7.5t-24.5 -20.5
t-16.5 -29.5t-6 -35.5zM5 539q0 33 10.5 61.5t28 49.5t41 33t49.5 12q27 0 50 -12.5t40.5 -33.5t27.5 -49.5t10 -60.5t-10 -60.5t-27.5 -49.5t-40.5 -33.5t-50 -12.5q-26 0 -49.5 12t-41 33t-28 49.5t-10.5 61.5z" />
    <glyph glyph-name="Scaron" unicode="&#x160;" horiz-adv-x="547" 
d="M274 836l53 93h66l-81 -141h-76l-82 141h65zM418 508q-2 42 -15.5 70t-34.5 45t-46 24t-50 7q-19 0 -42.5 -4.5t-44 -18t-34.5 -38t-14 -65.5q0 -23 6 -38.5t16 -26t22.5 -16.5t25.5 -9l168 -48q28 -8 52.5 -23t42.5 -38t28 -55.5t10 -75.5q0 -64 -21.5 -106t-55.5 -66.5
t-74.5 -34.5t-78.5 -10q-41 0 -70 6.5t-50 17t-34.5 22.5t-23.5 23q-38 42 -49 86.5t-11 95.5h75q0 -49 15 -81t38 -51.5t52 -27.5t57 -8q22 0 48.5 4.5t50 17.5t39.5 36.5t16 62.5q0 28 -6 47.5t-20 34t-38.5 25t-60.5 20.5l-120 34q-15 4 -36.5 13.5t-41.5 28.5t-34 49.5
t-14 77.5q0 42 11.5 82t36.5 71t63 50t92 19q51 0 88 -11.5t62 -30.5t40.5 -43t23.5 -49.5t11 -50t4 -44.5h-74z" />
    <glyph glyph-name="guilsinglleft" unicode="&#x2039;" horiz-adv-x="273" 
d="M201 108l-129 123v92l129 124v-89l-86 -81l86 -81v-88z" />
    <glyph glyph-name="OE" unicode="&#x152;" horiz-adv-x="820" 
d="M429 718h361v-86h-286v-220h273v-86h-273v-240h288v-86h-364v75h-1q-10 -16 -22 -33t-30 -30.5t-43 -22t-62 -8.5q-58 0 -103 28t-75.5 78t-46 118.5t-15.5 149.5q0 35 4.5 77t15 84.5t29 82t46.5 70.5t66.5 49.5t90.5 18.5q36 0 61.5 -11t43 -26t27 -30.5t14.5 -24.5h1
v73zM424 492q0 37 -10.5 67t-29.5 51t-44.5 32.5t-56.5 11.5q-40 0 -68 -16.5t-47 -43.5t-30.5 -61t-17.5 -69t-7.5 -68t-1.5 -57q0 -86 21 -150q21 -63 56.5 -94t104.5 -31q20 0 43 9t42.5 28.5t32.5 51.5t13 77v262z" />
    <glyph glyph-name="Zcaron" horiz-adv-x="501" 
d="M250 836l54 93h66l-81 -141h-76l-82 141h65zM482 0h-463v81l361 551h-334v86h436v-84l-362 -548h362v-86z" />
    <glyph glyph-name="Zcaron" unicode="&#x17d;" horiz-adv-x="501" 
d="M250 836l54 93h66l-81 -141h-76l-82 141h65zM482 0h-463v81l361 551h-334v86h436v-84l-362 -548h362v-86z" />
    <glyph glyph-name="quoteleft" unicode="&#x2018;" horiz-adv-x="182" 
d="M139 470h-86v98q0 58 18 101t68 57v-48q-16 -3 -25 -14.5t-13 -26.5t-5 -31.5t-1 -29.5h44v-106z" />
    <glyph glyph-name="quoteright" unicode="&#x2019;" horiz-adv-x="182" 
d="M43 718h86v-98q0 -58 -18 -100.5t-68 -56.5v47q16 3 25 14.5t13 26.5t5 31.5t1 29.5h-44v106z" />
    <glyph glyph-name="quotedblleft" unicode="&#x201c;" horiz-adv-x="273" 
d="M117 470h-86v98q0 58 18 101t68 57v-48q-16 -3 -25 -14.5t-13 -26.5t-5 -31.5t-1 -29.5h44v-106zM252 470h-85v98q0 58 17.5 101t67.5 57v-48q-16 -3 -25 -14.5t-13 -26.5t-5 -31.5t-1 -29.5h44v-106z" />
    <glyph glyph-name="quotedblright" unicode="&#x201d;" horiz-adv-x="273" 
d="M157 718h85v-98q0 -58 -18 -100.5t-67 -56.5v47q16 3 24.5 14.5t12.5 26.5t5 31.5t1 29.5h-43v106zM22 718h85v-98q0 -58 -18 -100.5t-67 -56.5v47q16 3 24.5 14.5t12.5 26.5t5 31.5t1 29.5h-43v106z" />
    <glyph glyph-name="bullet" unicode="&#x2022;" horiz-adv-x="287" 
d="M274 359q0 -33 -10.5 -61.5t-28.5 -49.5t-41.5 -33.5t-50.5 -12.5t-50.5 12t-41 33.5t-27.5 50t-10 61.5t10 61.5t27.5 50t41 34t50.5 12.5t50.5 -12.5t41.5 -34t28.5 -50t10.5 -61.5z" />
    <glyph glyph-name="endash" unicode="&#x2013;" 
d="M456 240h-456v73h456v-73z" />
    <glyph glyph-name="emdash" unicode="&#x2014;" horiz-adv-x="820" 
d="M821 240h-821v73h821v-73z" />
    <glyph glyph-name="tilde" unicode="&#x2dc;" horiz-adv-x="273" 
d="M276 722q-4 -45 -25 -77t-56 -32q-11 0 -21.5 3t-27.5 10l-21 9q-22 9 -32.5 12t-18.5 3q-17 0 -25 -12t-13 -32h-40q5 44 25 75.5t61 31.5q17 0 30 -4t26 -11l18 -9q11 -6 22.5 -9t16.5 -3q12 0 19.5 4.5t12 11t6 14.5t3.5 15h40z" />
    <glyph glyph-name="trademark" unicode="&#x2122;" horiz-adv-x="820" 
d="M306 659h-104v-353h-60v353h-104v59h268v-59zM553 415l96 303h92v-412h-60v335h-2l-106 -335h-40l-106 335h-2v-335h-60v412h92z" />
    <glyph glyph-name="scaron" unicode="&#x161;" horiz-adv-x="410" 
d="M205 641l54 94h66l-81 -142h-76l-82 142h65zM297 374q0 12 -3 27.5t-13.5 29t-30.5 22.5t-54 9q-8 0 -22.5 -2.5t-28.5 -10t-24.5 -22.5t-10.5 -39q0 -16 4.5 -26.5t13.5 -18t23.5 -13.5t35.5 -12l73 -22q67 -20 93.5 -52.5t26.5 -85.5q0 -41 -13 -73t-35.5 -54
t-53.5 -34t-67 -12q-64 0 -100.5 19.5t-55 48t-23.5 60t-6 55.5h70q1 -15 4.5 -34t15 -35t34 -27t60.5 -11q39 0 68.5 19.5t29.5 63.5q0 16 -4.5 27t-14.5 19.5t-26.5 15t-39.5 13.5l-84 25q-45 14 -72 43.5t-27 83.5q0 43 13.5 74.5t36 52t52 30.5t61.5 10q57 0 90 -22
t49.5 -50.5t20.5 -55t4 -36.5h-70z" />
    <glyph glyph-name="guilsinglright" unicode="&#x203a;" horiz-adv-x="273" 
d="M72 196l87 81l-87 81v89l129 -124v-92l-129 -123v88z" />
    <glyph glyph-name="oe" unicode="&#x153;" horiz-adv-x="774" 
d="M103 262q0 -26 5 -60.5t19 -65.5t38 -52.5t63 -21.5t63 21.5t37.5 52.5t18.5 65.5t5 60.5t-5 60.5t-18.5 65.5t-37.5 52.5t-63 21.5t-63 -21.5t-38 -52.5t-19 -65.5t-5 -60.5zM734 164q-1 -9 -5.5 -26.5t-13.5 -38t-23 -41.5t-34 -37l-17 -12.5t-22.5 -11.5t-32 -8.5
t-44.5 -3.5q-46 0 -88 23.5t-72 77.5q-14 -33 -34 -53t-41 -30.5t-41 -13.5t-33 -3h-5q-51 0 -88.5 24t-62 63t-36.5 88.5t-12 100.5t12 100.5t36.5 88.5t62 63t88.5 24t92.5 -26t68.5 -80q30 57 70 81.5t96 24.5q46 0 81 -21.5t58 -61.5t34.5 -96.5t11.5 -125.5h-314
q0 -82 31.5 -127t94.5 -45q25 0 45.5 10.5t34.5 26.5t21.5 33.5t8.5 32.5h72zM665 303q-2 30 -8.5 58.5t-20 50t-36 34.5t-55.5 13q-25 0 -46.5 -13t-37.5 -34.5t-25.5 -50t-9.5 -58.5h239z" />
    <glyph glyph-name="zcaron" horiz-adv-x="410" 
d="M205 641l54 94h66l-81 -142h-76l-82 142h65zM121 73h264v-73h-360v69l259 381h-239v74h333v-73z" />
    <glyph glyph-name="zcaron" unicode="&#x17e;" horiz-adv-x="410" 
d="M205 641l54 94h66l-81 -142h-76l-82 142h65zM121 73h264v-73h-360v69l259 381h-239v74h333v-73z" />
    <glyph glyph-name="Ydieresis" unicode="&#x178;" horiz-adv-x="547" 
d="M378 799h-75v102h75v-102zM245 799h-76v102h76v-102zM313 0h-79v289l-222 429h92l170 -345l168 345h93l-222 -429v-289z" />
    <glyph glyph-name="exclamdown" unicode="&#xa1;" horiz-adv-x="273" 
d="M157 352l20 -310v-237h-80v237l20 310h40zM97 524h80v-103h-80v103z" />
    <glyph glyph-name="cent" unicode="&#xa2;" 
d="M351 345l-6.5 27t-10 29.5t-16 26.5t-24.5 19l-90 -386q6 -2 12 -3t17 -1q19 0 37 5t33.5 18.5t28 38.5t19.5 64h70q-3 -27 -13 -62t-31.5 -66t-56 -52.5t-84.5 -21.5q-11 0 -22.5 2t-26.5 5l-27 -103h-33l28 114q-48 28 -80.5 88.5t-32.5 157.5q0 143 53 218t149 75
q23 0 35 -6l21 91h32l-20 -99q11 -4 27.5 -15t32.5 -32.5t29 -53.5t17 -78h-67zM263 459q-5 2 -10 2.5t-14 0.5q-26 0 -49 -12.5t-40 -38.5t-26.5 -67.5t-9.5 -98.5q0 -27 4.5 -52.5t12.5 -47.5t19 -39.5t24 -27.5z" />
    <glyph glyph-name="sterling" unicode="&#xa3;" 
d="M83 380q-11 28 -23 62t-12 72q0 31 9.5 67t32.5 66.5t62.5 50.5t98.5 20q46 0 79.5 -18.5t55.5 -49t32 -68.5t10 -77v-15h-73v9q0 63 -30.5 103t-81.5 40q-34 0 -56.5 -13.5t-36 -33t-19 -40.5t-5.5 -36q0 -29 11 -61.5t31 -77.5h136v-63h-113q3 -14 5 -29.5t2 -36.5
q0 -43 -23 -93t-74 -92v-1q23 16 50 26.5t57 10.5q19 0 38 -5.5t37 -12l34 -12t29 -5.5q17 0 35 10t28 21l33 -66q-26 -24 -50.5 -36t-53.5 -12q-18 0 -39 7t-42.5 15.5t-44.5 15.5t-45 7q-24 0 -48.5 -11.5t-47.5 -28.5l-40 69q32 26 51.5 53.5t30 53t14 46.5t3.5 34
q0 19 -5 39.5t-10 32.5h-88v63h56z" />
    <glyph glyph-name="currency" unicode="&#xa4;" 
d="M87 351q0 -36 11 -68.5t30 -57t45 -39t55 -14.5q30 0 55.5 14.5t44.5 39t30 57t11 68.5q0 35 -11 67t-30 56.5t-45 39t-55 14.5t-55 -14.5t-45 -39t-30 -56.5t-11 -67zM433 555l-45 -54q21 -29 31 -68.5t10 -81.5t-10 -80.5t-31 -70.5l44 -56l-37 -45l-44 58
q-25 -28 -57 -41.5t-66 -13.5q-33 0 -65 13.5t-57 41.5l-45 -58l-37 45l44 56q-21 32 -31 70.5t-10 80.5t10 81.5t31 68.5l-45 54l39 48l47 -56q23 25 55 38t64 13q33 0 64.5 -13t54.5 -38l47 56z" />
    <glyph glyph-name="yen" unicode="&#xa5;" 
d="M34 384h126l-157 304h81l144 -295l143 295h83l-159 -304h127v-57h-158v-85h158v-57h-158v-185h-72v185h-158v57h158v85h-158v57z" />
    <glyph glyph-name="brokenbar" unicode="&#xa6;" horiz-adv-x="213" 
d="M77 700h60v-349h-60v349zM77 200h60v-350h-60v350z" />
    <glyph glyph-name="section" unicode="&#xa7;" 
d="M159 428q-24 -15 -40 -38t-16 -58q0 -20 4.5 -34.5t10.5 -25t12 -17t10 -9.5l155 -122q23 19 39.5 41t16.5 60q0 33 -14.5 56.5t-35.5 39.5zM308 554q-1 12 -3 30t-10 35.5t-24 29.5t-45 12q-12 0 -25 -4t-24.5 -13.5t-18.5 -25t-7 -37.5q0 -28 16 -49.5t44 -41.5
l120 -86q19 -14 35 -29t28 -34t19 -42.5t7 -54.5q0 -32 -7.5 -56t-19.5 -43.5t-27 -34t-31 -26.5q20 -25 31.5 -50.5t11.5 -63.5q0 -39 -13.5 -69t-34.5 -50.5t-47.5 -31t-52.5 -10.5q-35 0 -64.5 10.5t-51 33.5t-34 58.5t-12.5 85.5h72q0 -12 2 -31t10 -37t24 -31t44 -13
q11 0 26 3t28.5 11.5t22.5 25t9 43.5q0 26 -12 44t-33 35l-172 140q-17 14 -27.5 30.5t-16.5 33t-8 32t-2 26.5q0 32 6 56t17 42.5t26 32.5t33 27q-21 28 -29.5 49.5t-8.5 50.5q0 28 8 58t25.5 55t45.5 41t68 16q25 0 51.5 -8t49 -28t37 -56t14.5 -91h-70z" />
    <glyph glyph-name="dieresis" unicode="&#xa8;" horiz-adv-x="273" 
d="M240 604h-74v103h74v-103zM108 604h-75v103h75v-103z" />
    <glyph glyph-name="copyright" unicode="&#xa9;" horiz-adv-x="605" 
d="M466 289q-11 -75 -53 -118t-99 -43q-42 0 -75.5 18t-57.5 49.5t-37 74t-13 91.5q0 50 12.5 92.5t35.5 73t56.5 48t75.5 17.5q59 0 102.5 -40t52.5 -117h-55q-8 42 -34.5 66.5t-64.5 24.5q-29 0 -51 -12.5t-37 -34.5t-22.5 -52t-7.5 -65q0 -34 8.5 -64.5t24 -53.5
t37.5 -36.5t50 -13.5q39 0 65.5 26.5t31.5 68.5h55zM51 361q0 -69 19.5 -127t53.5 -100t80 -66t99 -24t99 24t79.5 66t53 100t19.5 127q0 67 -19.5 124.5t-53 99.5t-79.5 65.5t-99 23.5t-99 -23.5t-80 -65.5t-53.5 -99.5t-19.5 -124.5zM303 -19q-64 0 -121 28.5t-100 79
t-68.5 120t-25.5 152.5q0 81 25.5 150t68.5 119.5t100 78.5t121 28q63 0 120 -28t100 -78.5t68.5 -119.5t25.5 -150q0 -83 -25.5 -152.5t-68.5 -120t-100 -79t-120 -28.5z" />
    <glyph glyph-name="ordfeminine" unicode="&#xaa;" horiz-adv-x="303" 
d="M119 457q16 0 31.5 5.5t27.5 15t19 22.5t7 28v42q-2 -2 -6 -4.5t-12 -5t-22 -5t-36 -5.5l-18.5 -4t-18 -7t-14 -12.5t-5.5 -19.5q0 -23 10 -36.5t37 -13.5zM284 410q-7 -2 -13 -3.5t-14 -1.5q-15 0 -24.5 4t-14.5 11.5t-7 16.5t-3 20q-14 -17 -37 -34.5t-63 -17.5
q-38 0 -63 25t-25 66q0 11 2.5 27t11.5 31t27 27t50 17l73 10q8 1 14 8t6 30q0 16 -14.5 27.5t-48.5 11.5q-21 0 -33 -6t-18.5 -14.5t-8.5 -17.5t-3 -15h-44q2 57 33 81t82 24q9 0 26.5 -2.5t35 -11.5t30.5 -26.5t13 -47.5v-178q0 -19 14 -19q3 0 7 0.5t9 1.5v-44z" />
    <glyph glyph-name="guillemotleft" unicode="&#xab;" 
d="M377 108l-130 123v92l130 124v-89l-86 -81l86 -81v-88zM208 108l-128 123v92l128 124v-89l-86 -81l86 -81v-88z" />
    <glyph glyph-name="logicalnot" unicode="&#xac;" horiz-adv-x="479" 
d="M387 317h-355v73h415v-282h-60v209z" />
    <glyph glyph-name="registered" unicode="&#xae;" horiz-adv-x="605" 
d="M303 386q17 0 32.5 1.5t27.5 8.5t19 21.5t7 39.5q0 20 -7 32.5t-18 19.5t-24.5 9.5t-27.5 2.5h-74v-135h65zM238 141h-54v436h136q63 0 95 -29.5t32 -94.5q0 -59 -27 -86.5t-67 -33.5l103 -192h-61l-95 189h-62v-189zM51 361q0 -69 19.5 -127t53.5 -100t80 -66t99 -24
t99 24t79.5 66t53 100t19.5 127q0 67 -19.5 124.5t-53 99.5t-79.5 65.5t-99 23.5t-99 -23.5t-80 -65.5t-53.5 -99.5t-19.5 -124.5zM303 -19q-64 0 -121 28.5t-100 79t-68.5 120t-25.5 152.5q0 81 25.5 150t68.5 119.5t100 78.5t121 28q63 0 120 -28t100 -78.5t68.5 -119.5
t25.5 -150q0 -83 -25.5 -152.5t-68.5 -120t-100 -79t-120 -28.5z" />
    <glyph glyph-name="macron" unicode="&#xaf;" horiz-adv-x="273" 
d="M264 627h-256v57h256v-57z" />
    <glyph glyph-name="macron" unicode="&#x2c9;" horiz-adv-x="273" 
d="M264 627h-256v57h256v-57z" />
    <glyph glyph-name="degree" unicode="&#xb0;" horiz-adv-x="328" 
d="M284 557q0 -31 -9 -58t-25.5 -46.5t-38.5 -30.5t-47 -11q-26 0 -47.5 11t-38 30.5t-25.5 46.5t-9 58t9 58t25.5 46.5t38 30.5t47.5 11q25 0 47 -11t38.5 -30.5t25.5 -46.5t9 -58zM164 660q-17 0 -31.5 -8.5t-25.5 -23t-17.5 -33t-6.5 -38.5t6.5 -38.5t17.5 -33t25.5 -23
t31.5 -8.5q16 0 30.5 8.5t26 23t18 33t6.5 38.5t-6.5 38.5t-18 33t-26 23t-30.5 8.5z" />
    <glyph glyph-name="plusminus" unicode="&#xb1;" horiz-adv-x="479" 
d="M32 73h415v-73h-415v73zM210 506h60v-161h177v-73h-177v-161h-60v161h-178v73h178v161z" />
    <glyph glyph-name="twosuperior" unicode="&#xb2;" horiz-adv-x="273" 
d="M15 553q0 51 14.5 81t35.5 45.5t43 19.5t37 4q51 0 85 -33.5t34 -92.5q0 -29 -7.5 -50t-20.5 -37.5t-30.5 -29.5t-37.5 -25l-38 -23q-29 -18 -42.5 -35.5t-22.5 -34.5h199v-61h-260q2 66 25.5 104.5t59.5 62.5l49 33q16 10 28.5 19t21.5 19.5t14 24.5t5 35v6
q0 21 -15 40.5t-53 19.5q-26 0 -40.5 -11t-21.5 -26t-9 -30.5t-3 -24.5h-50z" />
    <glyph glyph-name="threesuperior" unicode="&#xb3;" horiz-adv-x="273" 
d="M60 410q0 -13 2.5 -27.5t10 -26.5t21 -20t36.5 -8q36 0 57.5 17t21.5 54q0 27 -8.5 41.5t-21.5 21t-27.5 8t-26.5 1.5h-19v51h22q27 0 47.5 13.5t20.5 53.5q0 8 -2.5 17.5t-9.5 18t-20 14.5t-34 6t-33.5 -7.5t-20 -19.5t-10 -26t-3.5 -27h-50q0 23 5.5 47.5t19.5 44.5
t38 33t61 13q54 0 85 -31.5t31 -79.5q0 -41 -17 -61.5t-32 -25.5v-2q28 -9 45 -32t17 -65q0 -26 -7.5 -50.5t-24 -43.5t-42.5 -30.5t-62 -11.5q-21 0 -38 5.5t-31 13.5q-32 18 -43 51.5t-13 69.5h55z" />
    <glyph glyph-name="acute" unicode="&#xb4;" horiz-adv-x="273" 
d="M155 593h-55l73 142h89z" />
    <glyph glyph-name="mu" unicode="&#xb5;" horiz-adv-x="474" 
d="M458 -3l-14.5 -2t-31.5 -2q-38 0 -55.5 18.5t-24.5 67.5q-13 -39 -38.5 -66t-75.5 -27q-32 0 -55.5 19.5t-34.5 42.5v-255h-72v731h72v-342q0 -32 8 -55t21.5 -37.5t30 -21t34.5 -6.5q59 0 83.5 46t24.5 126v290h72v-383q0 -32 5.5 -49.5t25.5 -17.5q9 0 17 1.5l8 1.5
v-80z" />
    <glyph glyph-name="mu" unicode="&#x3bc;" horiz-adv-x="474" 
d="M458 -3l-14.5 -2t-31.5 -2q-38 0 -55.5 18.5t-24.5 67.5q-13 -39 -38.5 -66t-75.5 -27q-32 0 -55.5 19.5t-34.5 42.5v-255h-72v731h72v-342q0 -32 8 -55t21.5 -37.5t30 -21t34.5 -6.5q59 0 83.5 46t24.5 126v290h72v-383q0 -32 5.5 -49.5t25.5 -17.5q9 0 17 1.5l8 1.5
v-80z" />
    <glyph glyph-name="paragraph" unicode="&#xb6;" horiz-adv-x="440" 
d="M190 344q-39 0 -71.5 14t-56 39t-36 58.5t-12.5 72.5q0 99 52 144.5t138 45.5h204v-891h-60v832h-98v-832h-60v517z" />
    <glyph glyph-name="periodcentered" unicode="&#xb7;" horiz-adv-x="228" 
d="M115 315q19 0 35 -18t16 -45q0 -24 -14.5 -43t-37.5 -19q-21 0 -36 18.5t-15 43.5q0 28 16 45.5t36 17.5z" />
    <glyph glyph-name="periodcentered" unicode="&#x2219;" horiz-adv-x="228" 
d="M115 315q19 0 35 -18t16 -45q0 -24 -14.5 -43t-37.5 -19q-21 0 -36 18.5t-15 43.5q0 28 16 45.5t36 17.5z" />
    <glyph glyph-name="cedilla" unicode="&#xb8;" horiz-adv-x="273" 
d="M117 0h39l-38 -62q7 2 12 3t13 1q20 0 33.5 -7t21.5 -18.5t11.5 -24.5t3.5 -25q0 -39 -25.5 -65.5t-71.5 -26.5q-23 0 -43 7t-36 15l14 40q15 -8 26.5 -11.5t26.5 -3.5q6 0 14 1.5t15 6t12 12.5t5 22q0 12 -4.5 19.5t-11 12t-13 6t-10.5 1.5q-6 0 -12.5 -1.5t-19.5 -6.5
l-14 19z" />
    <glyph glyph-name="onesuperior" unicode="&#xb9;" horiz-adv-x="273" 
d="M35 577v46q23 2 39.5 5t28.5 11t19.5 23t13.5 41h46v-422h-58v296h-89z" />
    <glyph glyph-name="ordmasculine" unicode="&#xba;" horiz-adv-x="299" 
d="M225 572q0 15 -2.5 35t-10.5 37t-23 29t-39 12t-38.5 -12t-23 -29t-11 -37t-2.5 -35t2.5 -35t11 -38t23 -30t38.5 -12t39 12t23 30t10.5 38t2.5 35zM280 572q0 -49 -11.5 -81t-30.5 -51t-42 -27t-46 -8t-45.5 8t-41.5 27t-30.5 51t-11.5 81t11.5 80.5t30.5 50.5
t41.5 26.5t45.5 7.5t46 -7.5t42 -26.5t30.5 -50.5t11.5 -80.5z" />
    <glyph glyph-name="guillemotright" unicode="&#xbb;" 
d="M247 108v88l87 81l-87 81v89l130 -124v-92zM80 108v88l86 81l-86 81v89l128 -124v-92z" />
    <glyph glyph-name="onequarter" unicode="&#xbc;" horiz-adv-x="684" 
d="M60 581v42q22 2 38.5 5t28.5 11t20 23t13 41h44v-422h-55v300h-89zM173 -19h-47l363 722h46zM513 339h-2l-116 -187h118v187zM343 154l170 268h52v-270h55v-58h-55v-94h-52v94h-170v60z" />
    <glyph glyph-name="onehalf" unicode="&#xbd;" horiz-adv-x="684" 
d="M385 271q0 51 14.5 81t35 45.5t42.5 20t37 4.5q51 0 85.5 -33.5t34.5 -92.5q0 -29 -7.5 -49.5t-21 -37t-31.5 -29.5t-38 -26l-37 -23q-29 -18 -43 -35.5t-22 -34.5h200v-61h-262q3 66 26.5 104.5t58.5 62.5l50 33l29 20t22 19.5t14 24t5 34.5v6q0 21 -15 40.5t-54 19.5
q-26 0 -40.5 -11t-21.5 -26t-9 -31t-3 -25h-49zM35 577v46q23 2 39.5 5t28.5 11t19.5 23t13.5 41h46v-422h-58v296h-89zM143 -19h-46l362 722h47z" />
    <glyph glyph-name="threequarters" unicode="&#xbe;" horiz-adv-x="684" 
d="M92 410q1 -13 3.5 -27.5t10 -26.5t21 -20t36.5 -8q36 0 57.5 17t21.5 54q0 27 -8.5 41.5t-21.5 21t-27.5 8t-26.5 1.5h-19v51h21q27 0 47.5 13.5t20.5 53.5q0 8 -2.5 17.5t-9.5 18t-20 14.5t-34 6t-33.5 -7.5t-19.5 -19.5t-9.5 -26t-3.5 -27h-50q0 23 5.5 47.5t19.5 44.5
t37.5 33t60.5 13q55 0 85.5 -31.5t30.5 -79.5q0 -41 -16 -61.5t-32 -25.5v-2q28 -9 45.5 -32t17.5 -65q0 -26 -8 -50.5t-24.5 -43.5t-42.5 -30.5t-63 -11.5q-21 0 -38 5.5t-31 13.5q-31 18 -42.5 51.5t-13.5 69.5h55zM221 -19h-46l362 722h47zM438 152h119v187h-2zM388 154
l169 268h53v-270h54v-58h-54v-94h-53v94h-169v60z" />
    <glyph glyph-name="questiondown" unicode="&#xbf;" horiz-adv-x="501" 
d="M217 525h80v-102h-80v102zM432 33q-1 -26 -2.5 -50.5t-7.5 -48t-19 -46t-35 -43.5q-25 -23 -56 -34.5t-64 -11.5q-35 0 -66.5 12.5t-55.5 37.5t-38 61.5t-14 84.5q0 25 4.5 44.5t14 38.5t24 38.5t35.5 43.5l32.5 39t22 35.5t12.5 41.5t4 57v10h72q0 -43 -4 -71.5
t-13 -51.5t-24 -44t-37 -48l-33 -42.5t-20 -31t-9.5 -29.5t-2.5 -36q0 -16 4 -35.5t15.5 -37t30.5 -29.5t49 -12q39 0 61.5 18.5t33 44t13 52.5t2.5 43h71z" />
    <glyph glyph-name="Agrave" unicode="&#xc0;" horiz-adv-x="547" 
d="M149 929h88l73 -141h-55zM362 295l-87 316h-1l-95 -316h183zM155 209l-62 -209h-81l221 718h90l213 -718h-87l-58 209h-236z" />
    <glyph glyph-name="Aacute" unicode="&#xc1;" horiz-adv-x="547" 
d="M292 788h-55l73 141h89zM362 295l-87 316h-1l-95 -316h183zM155 209l-62 -209h-81l221 718h90l213 -718h-87l-58 209h-236z" />
    <glyph glyph-name="Acircumflex" unicode="&#xc2;" horiz-adv-x="547" 
d="M219 788h-65l82 141h76l81 -141h-66l-53 93zM362 295l-87 316h-1l-95 -316h183zM155 209l-62 -209h-81l221 718h90l213 -718h-87l-58 209h-236z" />
    <glyph glyph-name="Atilde" unicode="&#xc3;" horiz-adv-x="547" 
d="M413 918q-5 -45 -25.5 -77.5t-55.5 -32.5q-11 0 -21.5 3t-27.5 11l-21 9q-22 9 -32 11.5t-18 2.5q-17 0 -25.5 -11.5t-13.5 -31.5h-39q5 44 24.5 75.5t60.5 31.5q17 0 29.5 -4.5t25.5 -11.5l19 -9q11 -6 22.5 -9.5t16.5 -3.5q12 0 19.5 4.5t11.5 11.5t6 15.5t3 15.5h41z
M362 295l-87 316h-1l-95 -316h183zM155 209l-62 -209h-81l221 718h90l213 -718h-87l-58 209h-236z" />
    <glyph glyph-name="Adieresis" unicode="&#xc4;" horiz-adv-x="547" 
d="M378 799h-75v102h75v-102zM245 799h-76v102h76v-102zM362 295l-87 316h-1l-95 -316h183zM155 209l-62 -209h-81l221 718h90l213 -718h-87l-58 209h-236z" />
    <glyph glyph-name="Aring" unicode="&#xc5;" horiz-adv-x="547" 
d="M231 840q0 -22 12.5 -37.5t30.5 -15.5q17 0 30 15.5t13 37.5t-13 36.5t-30 14.5q-18 0 -30.5 -14.5t-12.5 -36.5zM274 931q32 0 54 -25.5t22 -65.5t-22 -66.5t-54 -26.5q-33 0 -54.5 26.5t-21.5 66.5t21.5 65.5t54.5 25.5zM362 295l-87 316h-1l-95 -316h183zM155 209
l-62 -209h-81l221 718h90l213 -718h-87l-58 209h-236z" />
    <glyph glyph-name="AE" unicode="&#xc6;" horiz-adv-x="820" 
d="M375 632h-80l-108 -337h188v337zM92 0h-86l240 718h528v-86h-319v-220h291v-86h-291v-240h325v-86h-405v209h-217z" />
    <glyph glyph-name="Ccedilla" unicode="&#xc7;" horiz-adv-x="592" 
d="M231 -163q15 -8 26.5 -11.5t26.5 -3.5q6 0 14 1.5t15.5 6t12.5 12.5t5 22q0 12 -4.5 19.5t-11 12t-13.5 6t-11 1.5q-6 0 -12.5 -1.5t-19.5 -6.5l-14 19l42 69q-48 2 -93 24t-80.5 67.5t-56.5 117t-21 171.5q0 83 19 151.5t54 118t86 77t116 27.5q57 0 100 -20t73 -52.5
t47 -75t22 -87.5h-77q-9 47 -28 76.5t-42.5 45.5t-48.5 21.5t-46 5.5q-40 0 -75 -18t-61.5 -53.5t-41.5 -89t-15 -124.5q0 -63 10 -118t33 -95t60 -63t92 -23q19 0 44.5 7.5t49.5 28.5t44.5 59.5t30.5 101.5h77q-11 -88 -39.5 -142t-64 -84t-71 -41.5t-59.5 -13.5l-26 -45
q7 2 12 3t13 1q20 0 33.5 -7t21.5 -18.5t11 -24.5t3 -25q0 -39 -25.5 -65.5t-71.5 -26.5q-23 0 -42.5 7t-36.5 15z" />
    <glyph glyph-name="Egrave" unicode="&#xc8;" horiz-adv-x="547" 
d="M149 929h88l73 -141h-55zM505 0h-434v718h428v-86h-349v-220h323v-86h-323v-240h355v-86z" />
    <glyph glyph-name="Eacute" unicode="&#xc9;" horiz-adv-x="547" 
d="M292 788h-55l73 141h89zM505 0h-434v718h428v-86h-349v-220h323v-86h-323v-240h355v-86z" />
    <glyph glyph-name="Ecircumflex" unicode="&#xca;" horiz-adv-x="547" 
d="M219 788h-65l82 141h76l81 -141h-66l-53 93zM505 0h-434v718h428v-86h-349v-220h323v-86h-323v-240h355v-86z" />
    <glyph glyph-name="Edieresis" unicode="&#xcb;" horiz-adv-x="547" 
d="M378 799h-75v102h75v-102zM245 799h-76v102h76v-102zM505 0h-434v718h428v-86h-349v-220h323v-86h-323v-240h355v-86z" />
    <glyph glyph-name="Igrave" unicode="&#xcc;" horiz-adv-x="228" 
d="M-11 929h89l73 -141h-55zM154 0h-80v718h80v-718z" />
    <glyph glyph-name="Iacute" unicode="&#xcd;" horiz-adv-x="228" 
d="M133 788h-55l73 141h88zM154 0h-80v718h80v-718z" />
    <glyph glyph-name="Icircumflex" unicode="&#xce;" horiz-adv-x="228" 
d="M60 788h-65l81 141h76l82 -141h-66l-54 93zM154 0h-80v718h80v-718z" />
    <glyph glyph-name="Idieresis" unicode="&#xcf;" horiz-adv-x="228" 
d="M218 799h-75v102h75v-102zM85 799h-74v102h74v-102zM154 0h-80v718h80v-718z" />
    <glyph glyph-name="Eth" unicode="&#xd0;" horiz-adv-x="592" 
d="M0 412h66v306h239q58 0 104 -25.5t78 -71.5t49 -110t17 -142q0 -15 -2 -48.5t-10 -74.5t-24 -84.5t-44 -79.5t-70 -59t-101 -23h-236v326h-66v86zM303 326h-157v-243h154q78 0 124.5 71.5t46.5 208.5t-47.5 204.5t-129.5 67.5h-148v-223h157v-86z" />
    <glyph glyph-name="Ntilde" unicode="&#xd1;" horiz-adv-x="592" 
d="M445 918q-5 -45 -26.5 -77.5t-56.5 -32.5q-11 0 -21 3t-27 11l-21 9q-22 9 -32 11.5t-18 2.5q-17 0 -25.5 -11.5t-13.5 -31.5h-39q4 44 24 75.5t61 31.5q16 0 29.5 -4.5t26.5 -11.5l18 -9q12 -6 22.5 -9.5t15.5 -3.5q12 0 20 4.5t12.5 11.5t6.5 15.5t3 15.5h41zM453 718
h77v-718h-90l-299 581h-2v-581h-77v718h95l294 -580h2v580z" />
    <glyph glyph-name="Ograve" unicode="&#xd2;" horiz-adv-x="638" 
d="M195 929h88l73 -141h-55zM606 359q0 -39 -6 -82t-19.5 -85t-35.5 -80t-54 -67.5t-74.5 -46.5t-97.5 -17t-97.5 17t-74.5 46.5t-54 67.5t-35.5 80t-19.5 85t-6 82t6 82t19.5 85t35.5 80t54 67.5t74.5 46.5t97.5 17t97.5 -17t74.5 -46.5t54 -67.5t35.5 -80t19.5 -85t6 -82z
M524 359q0 63 -14 116.5t-40.5 92.5t-64.5 61t-86 22t-86 -22t-64.5 -61t-40.5 -92.5t-14 -116.5t14 -116.5t40.5 -92.5t64.5 -61t86 -22t86 22t64.5 61t40.5 92.5t14 116.5z" />
    <glyph glyph-name="Oacute" unicode="&#xd3;" horiz-adv-x="638" 
d="M338 788h-55l73 141h89zM606 359q0 -39 -6 -82t-19.5 -85t-35.5 -80t-54 -67.5t-74.5 -46.5t-97.5 -17t-97.5 17t-74.5 46.5t-54 67.5t-35.5 80t-19.5 85t-6 82t6 82t19.5 85t35.5 80t54 67.5t74.5 46.5t97.5 17t97.5 -17t74.5 -46.5t54 -67.5t35.5 -80t19.5 -85t6 -82z
M524 359q0 63 -14 116.5t-40.5 92.5t-64.5 61t-86 22t-86 -22t-64.5 -61t-40.5 -92.5t-14 -116.5t14 -116.5t40.5 -92.5t64.5 -61t86 -22t86 22t64.5 61t40.5 92.5t14 116.5z" />
    <glyph glyph-name="Ocircumflex" unicode="&#xd4;" horiz-adv-x="638" 
d="M264 788h-64l82 141h76l80 -141h-65l-54 93zM606 359q0 -39 -6 -82t-19.5 -85t-35.5 -80t-54 -67.5t-74.5 -46.5t-97.5 -17t-97.5 17t-74.5 46.5t-54 67.5t-35.5 80t-19.5 85t-6 82t6 82t19.5 85t35.5 80t54 67.5t74.5 46.5t97.5 17t97.5 -17t74.5 -46.5t54 -67.5
t35.5 -80t19.5 -85t6 -82zM524 359q0 63 -14 116.5t-40.5 92.5t-64.5 61t-86 22t-86 -22t-64.5 -61t-40.5 -92.5t-14 -116.5t14 -116.5t40.5 -92.5t64.5 -61t86 -22t86 22t64.5 61t40.5 92.5t14 116.5z" />
    <glyph glyph-name="Otilde" unicode="&#xd5;" horiz-adv-x="638" 
d="M459 918q-5 -45 -25.5 -77.5t-55.5 -32.5q-11 0 -21.5 3t-27.5 11l-21 9q-22 9 -32.5 11.5t-18.5 2.5q-17 0 -25 -11.5t-13 -31.5h-40q5 44 24.5 75.5t60.5 31.5q17 0 30.5 -4.5t26.5 -11.5l18 -9q11 -6 22.5 -9.5t16.5 -3.5q12 0 19.5 4.5t11.5 11.5t6 15.5t3 15.5h41z
M606 359q0 -39 -6 -82t-19.5 -85t-35.5 -80t-54 -67.5t-74.5 -46.5t-97.5 -17t-97.5 17t-74.5 46.5t-54 67.5t-35.5 80t-19.5 85t-6 82t6 82t19.5 85t35.5 80t54 67.5t74.5 46.5t97.5 17t97.5 -17t74.5 -46.5t54 -67.5t35.5 -80t19.5 -85t6 -82zM524 359q0 63 -14 116.5
t-40.5 92.5t-64.5 61t-86 22t-86 -22t-64.5 -61t-40.5 -92.5t-14 -116.5t14 -116.5t40.5 -92.5t64.5 -61t86 -22t86 22t64.5 61t40.5 92.5t14 116.5z" />
    <glyph glyph-name="Odieresis" unicode="&#xd6;" horiz-adv-x="638" 
d="M423 799h-74v102h74v-102zM291 799h-75v102h75v-102zM606 359q0 -39 -6 -82t-19.5 -85t-35.5 -80t-54 -67.5t-74.5 -46.5t-97.5 -17t-97.5 17t-74.5 46.5t-54 67.5t-35.5 80t-19.5 85t-6 82t6 82t19.5 85t35.5 80t54 67.5t74.5 46.5t97.5 17t97.5 -17t74.5 -46.5
t54 -67.5t35.5 -80t19.5 -85t6 -82zM524 359q0 63 -14 116.5t-40.5 92.5t-64.5 61t-86 22t-86 -22t-64.5 -61t-40.5 -92.5t-14 -116.5t14 -116.5t40.5 -92.5t64.5 -61t86 -22t86 22t64.5 61t40.5 92.5t14 116.5z" />
    <glyph glyph-name="multiply" unicode="&#xd7;" horiz-adv-x="479" 
d="M32 455l42 51l165 -201l166 201l42 -51l-164 -202l164 -202l-42 -51l-166 201l-166 -201l-41 51l165 202z" />
    <glyph glyph-name="Oslash" unicode="&#xd8;" horiz-adv-x="638" 
d="M539 616q37 -58 52 -127t15 -130q0 -39 -6 -82t-19.5 -85t-35.5 -80t-54 -67.5t-74.5 -46.5t-97.5 -17q-65 0 -112.5 24t-80.5 63l-66 -87l-26 28l67 90q-19 29 -32 61.5t-21.5 66.5t-12 67.5t-3.5 64.5q0 39 6 82t19.5 85t35.5 80t54 67.5t74.5 46.5t97.5 17
q66 0 115 -24t81 -64l67 88l25 -30zM463 578q-26 35 -62.5 54t-81.5 19q-48 0 -86 -22t-64.5 -61t-40.5 -92.5t-14 -116.5q0 -55 11 -102.5t31 -85.5zM178 138q26 -34 61 -52.5t80 -18.5q48 0 86 22t64.5 61t40.5 92.5t14 116.5q0 110 -40 184z" />
    <glyph glyph-name="Ugrave" unicode="&#xd9;" horiz-adv-x="592" 
d="M171 929h89l73 -141h-55zM528 718v-466q0 -55 -14.5 -104.5t-43.5 -86.5t-74 -58.5t-105 -21.5t-102.5 21.5t-70 57.5t-40.5 82.5t-13 96.5v479h79v-452q0 -59 13.5 -97t34.5 -61t47.5 -32t53.5 -9t55 9t50 31t36 60t14 97v454h80z" />
    <glyph glyph-name="Uacute" unicode="&#xda;" horiz-adv-x="592" 
d="M315 788h-55l73 141h88zM528 718v-466q0 -55 -14.5 -104.5t-43.5 -86.5t-74 -58.5t-105 -21.5t-102.5 21.5t-70 57.5t-40.5 82.5t-13 96.5v479h79v-452q0 -59 13.5 -97t34.5 -61t47.5 -32t53.5 -9t55 9t50 31t36 60t14 97v454h80z" />
    <glyph glyph-name="Ucircumflex" unicode="&#xdb;" horiz-adv-x="592" 
d="M242 788h-64l80 141h76l82 -141h-65l-55 93zM528 718v-466q0 -55 -14.5 -104.5t-43.5 -86.5t-74 -58.5t-105 -21.5t-102.5 21.5t-70 57.5t-40.5 82.5t-13 96.5v479h79v-452q0 -59 13.5 -97t34.5 -61t47.5 -32t53.5 -9t55 9t50 31t36 60t14 97v454h80z" />
    <glyph glyph-name="Udieresis" unicode="&#xdc;" horiz-adv-x="592" 
d="M400 799h-75v102h75v-102zM267 799h-74v102h74v-102zM528 718v-466q0 -55 -14.5 -104.5t-43.5 -86.5t-74 -58.5t-105 -21.5t-102.5 21.5t-70 57.5t-40.5 82.5t-13 96.5v479h79v-452q0 -59 13.5 -97t34.5 -61t47.5 -32t53.5 -9t55 9t50 31t36 60t14 97v454h80z" />
    <glyph glyph-name="Yacute" unicode="&#xdd;" horiz-adv-x="547" 
d="M292 788h-55l73 141h89zM313 0h-79v289l-222 429h92l170 -345l168 345h93l-222 -429v-289z" />
    <glyph glyph-name="Thorn" unicode="&#xde;" horiz-adv-x="547" 
d="M71 718h79v-119h185q41 0 73.5 -15.5t55 -42.5t34.5 -64t12 -80q0 -38 -9.5 -75.5t-30 -68.5t-54 -50t-81.5 -19h-185v-184h-79v718zM150 267h158q27 0 49 6.5t37.5 21.5t24.5 40t9 61q0 34 -9 57t-24.5 37t-37 20t-45.5 6h-162v-249z" />
    <glyph glyph-name="germandbls" unicode="&#xdf;" horiz-adv-x="501" 
d="M55 532q0 43 12.5 79t36.5 62t59.5 40.5t81.5 14.5q91 0 143 -49t52 -131q0 -36 -8 -62t-18.5 -43t-22 -27l-18.5 -16q23 -8 40.5 -25.5t29.5 -40.5t18.5 -48.5t6.5 -47.5q0 -66 -15.5 -114t-43.5 -79t-65.5 -45.5t-81.5 -14.5q-18 0 -26.5 2.5t-17.5 4.5v75q19 -3 37 -3
q67 0 103 37t36 113q0 39 -10 66t-28.5 43.5t-44 23.5t-56.5 7q-11 0 -18 -0.5t-15 -2.5v78q5 -1 9 -1h10q37 0 61.5 9t39.5 24.5t21 36t6 42.5q0 48 -31.5 80t-93.5 32q-35 0 -57.5 -10t-36 -29t-18.5 -45t-5 -58v-510h-72v532z" />
    <glyph glyph-name="agrave" unicode="&#xe0;" 
d="M103 735h89l72 -142h-54zM315 267q-4 -4 -10.5 -8t-19.5 -7.5t-34.5 -8t-54.5 -9.5q-14 -2 -30 -6.5t-29.5 -13.5t-23 -24.5t-9.5 -40.5q0 -43 18.5 -67t59.5 -24q25 0 49 9.5t42.5 26t30 39t11.5 48.5v86zM51 364q1 47 14 80t36 54t55 30.5t72 9.5q13 0 39.5 -4t53 -19
t46.5 -44t20 -79v-301q0 -31 24 -31q5 0 11.5 1t12.5 3v-64q-10 -3 -19 -6.5t-21 -3.5q-24 0 -38.5 7t-22.5 18t-11 25.5t-4 29.5q-11 -14 -24.5 -29t-32 -27.5t-43 -20.5t-55.5 -8q-60 0 -97 41.5t-37 109.5q0 16 3.5 41.5t17 50.5t39 45t70.5 27l119 18q6 1 13 3.5t12.5 9
t9 18t3.5 31.5q0 42 -25 64t-76 22q-31 0 -49.5 -10.5t-29 -25.5t-14.5 -33t-6 -33h-66z" />
    <glyph glyph-name="aacute" unicode="&#xe1;" 
d="M247 593h-55l72 142h89zM315 267q-4 -4 -10.5 -8t-19.5 -7.5t-34.5 -8t-54.5 -9.5q-14 -2 -30 -6.5t-29.5 -13.5t-23 -24.5t-9.5 -40.5q0 -43 18.5 -67t59.5 -24q25 0 49 9.5t42.5 26t30 39t11.5 48.5v86zM51 364q1 47 14 80t36 54t55 30.5t72 9.5q13 0 39.5 -4t53 -19
t46.5 -44t20 -79v-301q0 -31 24 -31q5 0 11.5 1t12.5 3v-64q-10 -3 -19 -6.5t-21 -3.5q-24 0 -38.5 7t-22.5 18t-11 25.5t-4 29.5q-11 -14 -24.5 -29t-32 -27.5t-43 -20.5t-55.5 -8q-60 0 -97 41.5t-37 109.5q0 16 3.5 41.5t17 50.5t39 45t70.5 27l119 18q6 1 13 3.5t12.5 9
t9 18t3.5 31.5q0 42 -25 64t-76 22q-31 0 -49.5 -10.5t-29 -25.5t-14.5 -33t-6 -33h-66z" />
    <glyph glyph-name="acircumflex" unicode="&#xe2;" 
d="M174 593h-65l81 142h76l82 -142h-65l-55 94zM315 267q-4 -4 -10.5 -8t-19.5 -7.5t-34.5 -8t-54.5 -9.5q-14 -2 -30 -6.5t-29.5 -13.5t-23 -24.5t-9.5 -40.5q0 -43 18.5 -67t59.5 -24q25 0 49 9.5t42.5 26t30 39t11.5 48.5v86zM51 364q1 47 14 80t36 54t55 30.5t72 9.5
q13 0 39.5 -4t53 -19t46.5 -44t20 -79v-301q0 -31 24 -31q5 0 11.5 1t12.5 3v-64q-10 -3 -19 -6.5t-21 -3.5q-24 0 -38.5 7t-22.5 18t-11 25.5t-4 29.5q-11 -14 -24.5 -29t-32 -27.5t-43 -20.5t-55.5 -8q-60 0 -97 41.5t-37 109.5q0 16 3.5 41.5t17 50.5t39 45t70.5 27
l119 18q6 1 13 3.5t12.5 9t9 18t3.5 31.5q0 42 -25 64t-76 22q-31 0 -49.5 -10.5t-29 -25.5t-14.5 -33t-6 -33h-66z" />
    <glyph glyph-name="atilde" unicode="&#xe3;" 
d="M361 722q-5 -45 -26.5 -77t-56.5 -32q-11 0 -21 3t-27 10l-22 9q-21 9 -31.5 12t-17.5 3q-17 0 -25.5 -12t-13.5 -32h-39q4 44 24 75.5t61 31.5q16 0 29 -4t26 -11l18 -9q12 -6 23 -9t16 -3q12 0 19.5 4.5t12 11t6.5 14.5t3 15h42zM315 267q-4 -4 -10.5 -8t-19.5 -7.5
t-34.5 -8t-54.5 -9.5q-14 -2 -30 -6.5t-29.5 -13.5t-23 -24.5t-9.5 -40.5q0 -43 18.5 -67t59.5 -24q25 0 49 9.5t42.5 26t30 39t11.5 48.5v86zM51 364q1 47 14 80t36 54t55 30.5t72 9.5q13 0 39.5 -4t53 -19t46.5 -44t20 -79v-301q0 -31 24 -31q5 0 11.5 1t12.5 3v-64
q-10 -3 -19 -6.5t-21 -3.5q-24 0 -38.5 7t-22.5 18t-11 25.5t-4 29.5q-11 -14 -24.5 -29t-32 -27.5t-43 -20.5t-55.5 -8q-60 0 -97 41.5t-37 109.5q0 16 3.5 41.5t17 50.5t39 45t70.5 27l119 18q6 1 13 3.5t12.5 9t9 18t3.5 31.5q0 42 -25 64t-76 22q-31 0 -49.5 -10.5
t-29 -25.5t-14.5 -33t-6 -33h-66z" />
    <glyph glyph-name="adieresis" unicode="&#xe4;" 
d="M332 604h-75v103h75v-103zM199 604h-74v103h74v-103zM315 267q-4 -4 -10.5 -8t-19.5 -7.5t-34.5 -8t-54.5 -9.5q-14 -2 -30 -6.5t-29.5 -13.5t-23 -24.5t-9.5 -40.5q0 -43 18.5 -67t59.5 -24q25 0 49 9.5t42.5 26t30 39t11.5 48.5v86zM51 364q1 47 14 80t36 54t55 30.5
t72 9.5q13 0 39.5 -4t53 -19t46.5 -44t20 -79v-301q0 -31 24 -31q5 0 11.5 1t12.5 3v-64q-10 -3 -19 -6.5t-21 -3.5q-24 0 -38.5 7t-22.5 18t-11 25.5t-4 29.5q-11 -14 -24.5 -29t-32 -27.5t-43 -20.5t-55.5 -8q-60 0 -97 41.5t-37 109.5q0 16 3.5 41.5t17 50.5t39 45
t70.5 27l119 18q6 1 13 3.5t12.5 9t9 18t3.5 31.5q0 42 -25 64t-76 22q-31 0 -49.5 -10.5t-29 -25.5t-14.5 -33t-6 -33h-66z" />
    <glyph glyph-name="aring" unicode="&#xe5;" 
d="M187 664q0 -22 12 -37t30 -15t30.5 15t12.5 37t-12.5 37t-30.5 15t-30 -15t-12 -37zM229 756q33 0 54 -26t21 -66t-21 -66t-54 -26q-32 0 -54 26t-22 66t22 66t54 26zM315 267q-4 -4 -10.5 -8t-19.5 -7.5t-34.5 -8t-54.5 -9.5q-14 -2 -30 -6.5t-29.5 -13.5t-23 -24.5
t-9.5 -40.5q0 -43 18.5 -67t59.5 -24q25 0 49 9.5t42.5 26t30 39t11.5 48.5v86zM51 364q1 47 14 80t36 54t55 30.5t72 9.5q13 0 39.5 -4t53 -19t46.5 -44t20 -79v-301q0 -31 24 -31q5 0 11.5 1t12.5 3v-64q-10 -3 -19 -6.5t-21 -3.5q-24 0 -38.5 7t-22.5 18t-11 25.5
t-4 29.5q-11 -14 -24.5 -29t-32 -27.5t-43 -20.5t-55.5 -8q-60 0 -97 41.5t-37 109.5q0 16 3.5 41.5t17 50.5t39 45t70.5 27l119 18q6 1 13 3.5t12.5 9t9 18t3.5 31.5q0 42 -25 64t-76 22q-31 0 -49.5 -10.5t-29 -25.5t-14.5 -33t-6 -33h-66z" />
    <glyph glyph-name="ae" unicode="&#xe6;" horiz-adv-x="729" 
d="M315 267q-4 -4 -10.5 -8t-19.5 -7.5t-34.5 -8t-54.5 -9.5q-14 -2 -30 -6.5t-29.5 -13.5t-23 -24.5t-9.5 -40.5q0 -43 18.5 -67t59.5 -24q25 0 49 9.5t42.5 26t30 39t11.5 48.5v86zM689 164q-1 -9 -5.5 -26.5t-13.5 -38t-23.5 -41.5t-34.5 -37q-7 -6 -16.5 -12.5
t-23 -11.5t-32 -8.5t-44.5 -3.5q-38 0 -65 12t-45.5 29t-29.5 35.5t-17 32.5q-32 -58 -74.5 -83.5t-100.5 -25.5q-60 0 -97 41.5t-37 109.5q0 16 3.5 41.5t17 50.5t39 45t70.5 27l119 18q6 1 13 3.5t12.5 9t9 18t3.5 31.5q0 42 -25 64t-76 22q-31 0 -49.5 -10.5t-29 -25.5
t-14.5 -33t-6 -33h-66q1 47 14 80t36 54t55 30.5t72 9.5q31 0 52 -6t37 -16.5t27.5 -23.5t23.5 -28l20 23t27.5 24.5t39.5 19t55 7.5q46 0 81 -21.5t58 -61.5t34.5 -96.5t11.5 -125.5h-314q0 -82 31.5 -127t93.5 -45q25 0 45.5 10.5t34.5 26.5t22 33.5t9 32.5h72zM620 303
q-2 30 -8.5 58.5t-20 50t-36 34.5t-55.5 13q-25 0 -46.5 -13t-37.5 -34.5t-25.5 -50t-9.5 -58.5h239z" />
    <glyph glyph-name="ccedilla" unicode="&#xe7;" horiz-adv-x="410" 
d="M141 -163q16 -8 27 -11.5t27 -3.5q6 0 13.5 1.5t14.5 6t12 12.5t5 22q0 12 -4.5 19.5t-10.5 12t-13 6t-11 1.5q-5 0 -11.5 -1.5t-20.5 -6.5l-14 19l44 73q-41 4 -73.5 25t-55 55.5t-34.5 80t-12 99.5q0 61 12 114t37.5 92.5t64.5 62t92 22.5q42 0 71.5 -17t49 -44.5
t29 -61.5t11.5 -68h-69q-7 53 -31.5 82.5t-70.5 29.5q-33 0 -56 -17.5t-37 -46t-20 -63.5t-6 -70q0 -34 4.5 -69.5t17.5 -65t36 -48t60 -18.5t65 32t38 92h69q-2 -29 -11 -62t-27 -61.5t-46 -49t-68 -24.5l-31 -50q7 2 12.5 3t13.5 1q20 0 33 -7t21 -18.5t11.5 -24.5
t3.5 -25q0 -39 -26 -65.5t-71 -26.5q-23 0 -43 7t-36 15z" />
    <glyph glyph-name="egrave" unicode="&#xe8;" 
d="M103 735h89l72 -142h-54zM349 303q-2 30 -8.5 58.5t-20 50t-36 34.5t-55.5 13q-25 0 -46.5 -13t-37.5 -34.5t-25.5 -50t-9.5 -58.5h239zM418 164q-1 -9 -5.5 -26.5t-13.5 -38t-23 -41.5t-35 -37q-7 -6 -16.5 -12.5t-23 -11.5t-32 -8.5t-44.5 -3.5q-45 0 -81 19.5
t-60.5 54.5t-37.5 83t-13 105q0 61 12 114t37.5 92.5t64.5 62t92 22.5q46 0 81 -21.5t57.5 -61.5t34 -96.5t11.5 -125.5h-313q0 -82 31 -127t94 -45q25 0 45.5 10.5t34.5 26.5t21.5 33.5t8.5 32.5h73z" />
    <glyph glyph-name="eacute" unicode="&#xe9;" 
d="M247 593h-55l72 142h89zM349 303q-2 30 -8.5 58.5t-20 50t-36 34.5t-55.5 13q-25 0 -46.5 -13t-37.5 -34.5t-25.5 -50t-9.5 -58.5h239zM418 164q-1 -9 -5.5 -26.5t-13.5 -38t-23 -41.5t-35 -37q-7 -6 -16.5 -12.5t-23 -11.5t-32 -8.5t-44.5 -3.5q-45 0 -81 19.5
t-60.5 54.5t-37.5 83t-13 105q0 61 12 114t37.5 92.5t64.5 62t92 22.5q46 0 81 -21.5t57.5 -61.5t34 -96.5t11.5 -125.5h-313q0 -82 31 -127t94 -45q25 0 45.5 10.5t34.5 26.5t21.5 33.5t8.5 32.5h73z" />
    <glyph glyph-name="ecircumflex" unicode="&#xea;" 
d="M174 593h-65l81 142h76l82 -142h-65l-55 94zM349 303q-2 30 -8.5 58.5t-20 50t-36 34.5t-55.5 13q-25 0 -46.5 -13t-37.5 -34.5t-25.5 -50t-9.5 -58.5h239zM418 164q-1 -9 -5.5 -26.5t-13.5 -38t-23 -41.5t-35 -37q-7 -6 -16.5 -12.5t-23 -11.5t-32 -8.5t-44.5 -3.5
q-45 0 -81 19.5t-60.5 54.5t-37.5 83t-13 105q0 61 12 114t37.5 92.5t64.5 62t92 22.5q46 0 81 -21.5t57.5 -61.5t34 -96.5t11.5 -125.5h-313q0 -82 31 -127t94 -45q25 0 45.5 10.5t34.5 26.5t21.5 33.5t8.5 32.5h73z" />
    <glyph glyph-name="edieresis" unicode="&#xeb;" 
d="M332 604h-75v103h75v-103zM199 604h-74v103h74v-103zM349 303q-2 30 -8.5 58.5t-20 50t-36 34.5t-55.5 13q-25 0 -46.5 -13t-37.5 -34.5t-25.5 -50t-9.5 -58.5h239zM418 164q-1 -9 -5.5 -26.5t-13.5 -38t-23 -41.5t-35 -37q-7 -6 -16.5 -12.5t-23 -11.5t-32 -8.5
t-44.5 -3.5q-45 0 -81 19.5t-60.5 54.5t-37.5 83t-13 105q0 61 12 114t37.5 92.5t64.5 62t92 22.5q46 0 81 -21.5t57.5 -61.5t34 -96.5t11.5 -125.5h-313q0 -82 31 -127t94 -45q25 0 45.5 10.5t34.5 26.5t21.5 33.5t8.5 32.5h73z" />
    <glyph glyph-name="igrave" unicode="&#xec;" horiz-adv-x="228" 
d="M-11 735h89l73 -142h-55zM150 0h-72v524h72v-524z" />
    <glyph glyph-name="iacute" unicode="&#xed;" horiz-adv-x="228" 
d="M133 593h-55l73 142h88zM150 0h-72v524h72v-524z" />
    <glyph glyph-name="icircumflex" unicode="&#xee;" horiz-adv-x="228" 
d="M60 593h-65l81 142h76l82 -142h-66l-54 94zM150 0h-72v524h72v-524z" />
    <glyph glyph-name="idieresis" unicode="&#xef;" horiz-adv-x="228" 
d="M218 604h-75v103h75v-103zM85 604h-74v103h74v-103zM150 0h-72v524h72v-524z" />
    <glyph glyph-name="eth" unicode="&#xf0;" 
d="M297 646q63 -71 97 -161t34 -187q0 -90 -18.5 -150t-46.5 -96.5t-62.5 -51.5t-65.5 -15q-54 0 -93 23.5t-64 61.5t-37 86t-12 98q0 49 12 97.5t35.5 87t58.5 62t81 23.5q10 0 23 -1.5t27.5 -7.5t29.5 -17t29 -30l2 2q-14 43 -39.5 79.5t-51.5 62.5l-101 -62l-35 42l97 57
q-17 16 -35 29t-38 23l61 36q20 -10 38.5 -22t35.5 -28l87 50l39 -40zM103 254q0 -21 5 -53.5t18.5 -63.5t38 -53.5t63.5 -22.5t63.5 22.5t38 53.5t18 63.5t4.5 53.5t-4.5 53.5t-18 63.5t-38 53.5t-63.5 22.5t-63.5 -22.5t-38 -53.5t-18.5 -63.5t-5 -53.5z" />
    <glyph glyph-name="ntilde" unicode="&#xf1;" 
d="M361 722q-5 -45 -26.5 -77t-56.5 -32q-11 0 -21 3t-27 10l-22 9q-21 9 -31.5 12t-17.5 3q-17 0 -25.5 -12t-13.5 -32h-39q4 44 24 75.5t61 31.5q16 0 29 -4t26 -11l18 -9q12 -6 23 -9t16 -3q12 0 19.5 4.5t12 11t6.5 14.5t3 15h42zM403 0h-72v322q0 68 -19.5 102.5
t-72.5 34.5q-15 0 -35 -7t-37 -26.5t-29 -53.5t-12 -87v-285h-73v524h68v-75h2q6 10 16.5 25.5t26.5 29.5t37.5 24t49.5 10q25 0 51.5 -7.5t48.5 -27.5t36 -55.5t14 -91.5v-356z" />
    <glyph glyph-name="ograve" unicode="&#xf2;" 
d="M103 735h89l72 -142h-54zM103 262q0 -26 5 -60.5t19 -65.5t38 -52.5t63 -21.5t63 21.5t37.5 52.5t18.5 65.5t5 60.5t-5 60.5t-18.5 65.5t-37.5 52.5t-63 21.5t-63 -21.5t-38 -52.5t-19 -65.5t-5 -60.5zM29 262q0 51 12 100.5t36.5 88.5t62 63t88.5 24t89 -24t62.5 -63
t36.5 -88.5t12 -100.5t-12 -100.5t-36.5 -88.5t-62.5 -63t-89 -24t-88.5 24t-62 63t-36.5 88.5t-12 100.5z" />
    <glyph glyph-name="oacute" unicode="&#xf3;" 
d="M247 593h-55l72 142h89zM103 262q0 -26 5 -60.5t19 -65.5t38 -52.5t63 -21.5t63 21.5t37.5 52.5t18.5 65.5t5 60.5t-5 60.5t-18.5 65.5t-37.5 52.5t-63 21.5t-63 -21.5t-38 -52.5t-19 -65.5t-5 -60.5zM29 262q0 51 12 100.5t36.5 88.5t62 63t88.5 24t89 -24t62.5 -63
t36.5 -88.5t12 -100.5t-12 -100.5t-36.5 -88.5t-62.5 -63t-89 -24t-88.5 24t-62 63t-36.5 88.5t-12 100.5z" />
    <glyph glyph-name="ocircumflex" unicode="&#xf4;" 
d="M174 593h-65l81 142h76l82 -142h-65l-55 94zM103 262q0 -26 5 -60.5t19 -65.5t38 -52.5t63 -21.5t63 21.5t37.5 52.5t18.5 65.5t5 60.5t-5 60.5t-18.5 65.5t-37.5 52.5t-63 21.5t-63 -21.5t-38 -52.5t-19 -65.5t-5 -60.5zM29 262q0 51 12 100.5t36.5 88.5t62 63t88.5 24
t89 -24t62.5 -63t36.5 -88.5t12 -100.5t-12 -100.5t-36.5 -88.5t-62.5 -63t-89 -24t-88.5 24t-62 63t-36.5 88.5t-12 100.5z" />
    <glyph glyph-name="otilde" unicode="&#xf5;" 
d="M369 722q-5 -45 -26.5 -77t-56.5 -32q-11 0 -21 3t-27 10l-22 9q-21 9 -31 12t-18 3q-17 0 -25.5 -12t-13.5 -32h-39q4 44 24 75.5t61 31.5q16 0 29.5 -4t26.5 -11l17 -9q12 -6 23 -9t16 -3q12 0 19.5 4.5t12 11t6.5 14.5t3 15h42zM103 262q0 -26 5 -60.5t19 -65.5
t38 -52.5t63 -21.5t63 21.5t37.5 52.5t18.5 65.5t5 60.5t-5 60.5t-18.5 65.5t-37.5 52.5t-63 21.5t-63 -21.5t-38 -52.5t-19 -65.5t-5 -60.5zM29 262q0 51 12 100.5t36.5 88.5t62 63t88.5 24t89 -24t62.5 -63t36.5 -88.5t12 -100.5t-12 -100.5t-36.5 -88.5t-62.5 -63
t-89 -24t-88.5 24t-62 63t-36.5 88.5t-12 100.5z" />
    <glyph glyph-name="odieresis" unicode="&#xf6;" 
d="M332 604h-75v103h75v-103zM199 604h-74v103h74v-103zM103 262q0 -26 5 -60.5t19 -65.5t38 -52.5t63 -21.5t63 21.5t37.5 52.5t18.5 65.5t5 60.5t-5 60.5t-18.5 65.5t-37.5 52.5t-63 21.5t-63 -21.5t-38 -52.5t-19 -65.5t-5 -60.5zM29 262q0 51 12 100.5t36.5 88.5t62 63
t88.5 24t89 -24t62.5 -63t36.5 -88.5t12 -100.5t-12 -100.5t-36.5 -88.5t-62.5 -63t-89 -24t-88.5 24t-62 63t-36.5 88.5t-12 100.5z" />
    <glyph glyph-name="divide" unicode="&#xf7;" horiz-adv-x="479" 
d="M184 49q0 29 16.5 48.5t38.5 19.5q23 0 39.5 -20t16.5 -48q0 -26 -16.5 -47t-39.5 -21q-22 0 -38.5 20t-16.5 48zM184 457q0 29 16.5 48t38.5 19q23 0 39.5 -19.5t16.5 -47.5q0 -26 -16.5 -47.5t-39.5 -21.5q-22 0 -38.5 20.5t-16.5 48.5zM32 216v73h415v-73h-415z" />
    <glyph glyph-name="oslash" unicode="&#xf8;" horiz-adv-x="501" 
d="M143 108q14 -20 35 -33t50 -13q39 0 63 21.5t37.5 52.5t18.5 65.5t5 60.5q0 23 -3.5 53t-14.5 58zM317 410q-14 23 -35.5 37.5t-53.5 14.5q-39 0 -63 -21.5t-38 -52.5t-19 -65.5t-5 -60.5q0 -25 5 -57t16 -62zM384 441q23 -38 33.5 -84.5t10.5 -94.5q0 -51 -12 -100.5
t-36.5 -88.5t-62.5 -63t-89 -24q-42 0 -74.5 16t-55.5 44l-50 -68l-25 26l52 72q-23 38 -34.5 86.5t-11.5 99.5t12 100.5t36.5 88.5t62 63t88.5 24q44 0 77 -17.5t57 -47.5l53 72l25 -26z" />
    <glyph glyph-name="ugrave" unicode="&#xf9;" 
d="M103 735h89l72 -142h-54zM333 0v76l-1 2q-23 -46 -53.5 -69.5t-82.5 -23.5q-24 0 -49 7.5t-45 26.5t-33 50t-13 78v377h72v-348q0 -32 6.5 -54t17.5 -35.5t26 -19.5t33 -6q34 0 57 16.5t36.5 42t19 56.5t5.5 60v288h72v-524h-68z" />
    <glyph glyph-name="uacute" unicode="&#xfa;" 
d="M247 593h-55l72 142h89zM333 0v76l-1 2q-23 -46 -53.5 -69.5t-82.5 -23.5q-24 0 -49 7.5t-45 26.5t-33 50t-13 78v377h72v-348q0 -32 6.5 -54t17.5 -35.5t26 -19.5t33 -6q34 0 57 16.5t36.5 42t19 56.5t5.5 60v288h72v-524h-68z" />
    <glyph glyph-name="ucircumflex" unicode="&#xfb;" 
d="M174 593h-65l81 142h76l82 -142h-65l-55 94zM333 0v76l-1 2q-23 -46 -53.5 -69.5t-82.5 -23.5q-24 0 -49 7.5t-45 26.5t-33 50t-13 78v377h72v-348q0 -32 6.5 -54t17.5 -35.5t26 -19.5t33 -6q34 0 57 16.5t36.5 42t19 56.5t5.5 60v288h72v-524h-68z" />
    <glyph glyph-name="udieresis" unicode="&#xfc;" 
d="M332 604h-75v103h75v-103zM199 604h-74v103h74v-103zM333 0v76l-1 2q-23 -46 -53.5 -69.5t-82.5 -23.5q-24 0 -49 7.5t-45 26.5t-33 50t-13 78v377h72v-348q0 -32 6.5 -54t17.5 -35.5t26 -19.5t33 -6q34 0 57 16.5t36.5 42t19 56.5t5.5 60v288h72v-524h-68z" />
    <glyph glyph-name="yacute" unicode="&#xfd;" horiz-adv-x="410" 
d="M224 593h-55l73 142h89zM322 524h79l-75 -257t-79 -257l-29.5 -90t-23.5 -62t-22 -39.5t-24 -21.5t-29.5 -9t-39.5 -2q-8 0 -15.5 2.5t-15.5 5.5v80q7 -3 18 -6t25 -3t23 3.5t17 16.5t16 36.5l21 64.5l-159 538h82l114 -427h2z" />
    <glyph glyph-name="thorn" unicode="&#xfe;" 
d="M48 718h72v-267h1l15 25t23.5 29t35.5 23.5t50 9.5q43 0 76 -20t56 -55.5t35 -83t12 -102.5q0 -47 -9 -98.5t-30.5 -94.5t-57.5 -71t-91 -28q-44 0 -72.5 21t-42.5 49h-1v-262h-72v925zM117 237q0 -52 12 -86t29.5 -54t38 -28t37.5 -8q29 0 51 15.5t36.5 42.5t21.5 64
t7 80q0 25 -3 59t-14.5 64.5t-35 51.5t-65.5 21q-39 0 -62 -22.5t-34.5 -56.5t-15 -72.5t-3.5 -70.5z" />
    <glyph glyph-name="ydieresis" unicode="&#xff;" horiz-adv-x="410" 
d="M309 604h-74v103h74v-103zM177 604h-76v103h76v-103zM322 524h79l-75 -257t-79 -257l-29.5 -90t-23.5 -62t-22 -39.5t-24 -21.5t-29.5 -9t-39.5 -2q-8 0 -15.5 2.5t-15.5 5.5v80q7 -3 18 -6t25 -3t23 3.5t17 16.5t16 36.5l21 64.5l-159 538h82l114 -427h2z" />
    <glyph glyph-name="exclam" unicode="!" horiz-adv-x="228" 
d="M93 171l-20 310v237h80v-237l-19 -310h-41zM153 0h-80v102h80v-102z" />
    <glyph glyph-name="space" horiz-adv-x="228" 
 />
    <glyph glyph-name="minus" unicode="&#x2212;" horiz-adv-x="479" 
d="M32 216v73h415v-73h-415z" />
    <glyph glyph-name="fraction" unicode="&#x2044;" horiz-adv-x="137" 
d="M-90 -19h-46l362 722h48z" />
    <glyph glyph-name="fraction" unicode="&#x2215;" horiz-adv-x="137" 
d="M-90 -19h-46l362 722h48z" />
    <glyph glyph-name="fi" unicode="&#xfb01;" horiz-adv-x="410" 
d="M284 618v100h72v-100h-72zM356 0h-72v524h72v-524zM143 450v-450h-72v450h-59v74h59v89q0 60 29 87.5t82 27.5q8 0 16 -0.5t17 -1.5v-79q-7 1 -14.5 1.5t-14.5 0.5q-23 0 -33 -14.5t-10 -46.5v-64h72v-74h-72z" />
    <glyph glyph-name="fl" unicode="&#xfb02;" horiz-adv-x="410" 
d="M354 0h-71v718h71v-718zM143 450v-450h-72v450h-59v74h59v89q0 60 29 87.5t82 27.5q8 0 16 -0.5t17 -1.5v-79q-7 1 -14.5 1.5t-14.5 0.5q-23 0 -33 -14.5t-10 -46.5v-64h72v-74h-72z" />
    <glyph glyph-name="breve" unicode="&#x2d8;" horiz-adv-x="273" 
d="M264 731q-7 -74 -42 -105t-89 -31q-41 0 -64.5 16.5t-36 38.5t-16.5 45t-5 36h40q2 -9 6.5 -22.5t13.5 -25.5q9 -13 25.5 -22t42.5 -9q25 0 40 8t24 20t13.5 25.5t7.5 25.5h40z" />
    <glyph glyph-name="dotaccent" unicode="&#x2d9;" horiz-adv-x="273" 
d="M174 604h-74v103h74v-103z" />
    <glyph glyph-name="ring" unicode="&#x2da;" horiz-adv-x="273" 
d="M94 664q0 -22 12.5 -37t30.5 -15t30 15t12 37t-12 37t-30 15t-30.5 -15t-12.5 -37zM137 756q32 0 54 -26t22 -66t-22 -66t-54 -26q-33 0 -54 26t-21 66t21 66t54 26z" />
    <glyph glyph-name="hungarumlaut" unicode="&#x2dd;" horiz-adv-x="273" 
d="M228 593h-55l73 142h89zM81 593h-56l74 142h89z" />
    <glyph glyph-name="ogonek" unicode="&#x2db;" horiz-adv-x="273" 
d="M236 -203q-9 -5 -31 -13.5t-48 -8.5q-46 0 -71.5 26.5t-25.5 65.5q0 12 3 30.5t12.5 38t27 37t46.5 27.5h55v-4q-25 -17 -41 -31.5t-25 -28.5t-12.5 -29.5t-3.5 -34.5q0 -17 5 -27t12.5 -15t15 -6.5t13.5 -1.5q16 0 27 3.5t26 11.5z" />
    <glyph glyph-name="caron" unicode="&#x2c7;" horiz-adv-x="273" 
d="M136 641l54 94h66l-81 -142h-76l-82 142h65z" />
    <glyph glyph-name="Lslash" unicode="&#x141;" 
d="M239 462l-97 -67v-309h298v-86h-377v344l-79 -55v58l78 55v316h80v-265l97 67v-58z" />
    <glyph glyph-name="dotlessi" unicode="&#x131;" horiz-adv-x="228" 
d="M150 0h-72v524h72v-524z" />
    <glyph glyph-name="lslash" unicode="&#x142;" horiz-adv-x="182" 
d="M127 385v-385h-72v339l-71 -50v58l71 50v321h72v-275l71 50v-58z" />
    <glyph glyph-name="nonbreakingspace" horiz-adv-x="228" 
 />
    </font>
</defs>
</svg>
